<mxfile host="65bd71144e">
    <diagram id="cFMaGBLfMYWYl0vBBSfO" name="Page-1">
        <mxGraphModel dx="520" dy="575" grid="1" gridSize="10" guides="1" tooltips="1" connect="1" arrows="1" fold="1" page="1" pageScale="1" pageWidth="850" pageHeight="1100" math="0" shadow="0">
            <root>
                <mxCell id="0"/>
                <mxCell id="1" parent="0"/>
                <mxCell id="2" value="" style="shape=image;verticalLabelPosition=bottom;labelBackgroundColor=default;verticalAlign=top;aspect=fixed;imageAspect=0;image=data:image/png,iVBORw0KGgoAAAANSUhEUgAAAQwAAAE5CAYAAABlOx6NAAAAAXNSR0IArs4c6QAAAARnQU1BAACxjwv8YQUAAAAJcEhZcwAAEnQAABJ0Ad5mH3gAAKAXSURBVHhe7V0HgBXV1f6279ve6L13lKaggFIUe401lsT2JyZqYtQYjS2aRGOJSYxGo8YUY4kNCyqCAhYULKiogPQO2+vb8nb3P9+Zd94OL6sBfG+Xt85ZDnfezNw7d86c891z7r1zJ662rr4ZHnnkkUe7QfHB1COPPPLof5IHGB555NFukwcYHnnk0W6TBxgeeeTRbpMHGB555NFukwcYHnnk0W5Tuw+rNjc7lw9PSV+17ZFH7UFxcXHBrda3w9OOSO0CGG5wIDc1NYW2w9nIve2RR+1B4SARzvHx8bv8tvM6ErU5YBgQGEgwbY3lYOhcy2cke4NbHnkUXRLTD261GH8IEIQJEq0xj1tq+ToCtRlgmPGT3cDQ2NjocCDg/G7ibwdMuN+dl4Jn6pFHbUmmd27jT0hI0O2EhHgkxCcoOCQkJup+cjh4uPPGMrUJYJjBk90gERCQCDQ0INAoaSD4W5jH7DymVoaRe9sjj6JJbiO3bQWHICgwTRSgcFi2EyRNStLfbvDoKKARdcBwA4UxQaGhvh4NgQbU1zegQUCjXn6TuR3yNoKAoWUEwxBuU+geaHgUbTI9MyMXc9dtN2AYOCQnJysnye+UlGQFjiT5zWM8z5j5rbxYpDYDDLdXQbCoq69DXZ2kdXXw+/0KFvQ26hsc0HC8jcZQfjdT8AQSjzyKJpmemZG7Wb2JIFAkJQpoCFBw2+fzITU1VUEjOUmOBUHDvA3LH6sUdcAwD8HCDQJDXV0tamvrhGtRVVWlQMF9FeXlqKyqdsCD50uoQpAxoCAxpcDtt0ceRYtMz8zAzdhp+Bp6CBCkpKQgIz0NWdnZsp2qwJGenq7A4fOlCoikKJDwXDLzE4hilaIOGG7Pwgk76FHUoqamBpUVFbq/cOcOvPX2O5g/fx42bNiAJgEQeVIqXM+T8GhfIxq8Nlg0fgGIPn36YObMw3DQpIno3KWrAkNmVhbS0tL+CzTM04hVijpgmGeh/RQMP8SrqK6uVm+C+1Z/+SXuve9ebP58Gab3iMOo3CR0TWfYoZjBZxKi5iYBkXjPu/Co7YiNlumdkekl27Lt1XH4tLQBr29pRq8RY/DDH/wQAwcN0r4Meh3qbUiIkiyeCPeZpxGrFFXAoGEbYLCvorbWL56FHxXiWVRVVmLbtm249dbfIqfoM9wx2YeJXfxSI8nI0VTWitvu1COP2pPC9ZEpnQXZfndHGq54swZlnUbg6qt/gW7duiEjMxNZ6mmwX8On4YsBBoEoFimqgMFwgmCh/RbiWdC7YJ9FaUkJmiRMefiRv2HJc4/i5RN8GJBZg6oGEaTUJkHQvKmxyfEm+DTs4XjkUXtSUA/j5I9eR3xCPBolbZZ9GUkBrKlMw6zn/Jh04ln4/rnfk+MJyM3LQ0ZGhnoZKfQ0gqFJrPZjRL3W9DLITc0OeNDT4O/1a9fg3cWL8ZP9gQEZDlgkyfnJIvx4QQ16bQmSJshTSpRa2ramHnvclhzUO9VD2xb9pJ5SX6m31F/q8U/3E29D9HrDurXaYFLfqffUf7OFWKaoAUYIKERoTqdnY6gfo1n2rdu4CYUb1mNMp2SB7DjEixwZJjazRhSq9XXKpgqZvylrph573JYc1DvVQ26TdL/ouOgr9Zb6Sz0eK/q8Q/R67caNqufUd2eagNP5b6OGWlYMUtQAw00UnAGHI7wGnXvROaURuSk8QQBDhC6i1IfQRDePKVn28bdue+xxezL1kPoo26qf8lv1VfZRfwkiualAl+QA/DV+0Xensz8EFMKxTlEDDO1dDgrWEW7LlPB6BY0AkhLikChMwKDQ2WehD4Gs7oY8CIkX42XbY4/3CWYnhuil08I5oKF6y8ZOjlKfqdfUb+q56bzbsyDHaqdn1EMSYwpMWWI5Tv12hBhEaUVo5wGoGOUBSHioLl5jENE99nhfYOoj9VL1k3pKfRW9Vf2lrgZ1WoEi2Hdhuh9uE7FIbROSiHBCgKHsCJQyVoHzHP4FhW2IbQ+JonU/NI89bg/eRQ/ll3nE1FvnqKPP1OuWBnFXwIh1iipghNA0KMxdgEOQl0ShK8kpuk2moOVcHiFyW+qxx+3Jbn2kflJPZYejt0EsMH0O9yxIagm0h+DvWKSoexhuAbm3g86corMSZc5jPEe2+WBI4Xk99ri92PSQRP2knsoOZ5+jriF9Dul3WF7bjlWKKmCwY8fYkDbEQUgOAYaLnOcQ24L1qGMT9TOIEbuQ6bNquEvfqf9ue4hVapuQRNgtLNtHCoUkHnnUAcj0+ev03nQ/FqlNOj1JbmGZAG2/Rx51FDJ97kgg4aY2Aww3dSQBeuRRa9RRdbxdAMMjjzyKTfIAwyOPPNpt8gBjHyZ6tOrVsr8nznlU5uWGvN1WjnnkUbTIA4x9mBQLhJtrJR7283VJ53co5Wb4MY88iiK1K2CwQXRaRfYmO9se/zfH9xuB+EGj0RwflBNBxI71HYr4wWPkGNeZbNnvcdtzSI+52UGpXQGDL/A4rSKHWp1tj1vYKPm8vyHl4qcQl8S1AHjMeWw8J/nse5Fy2YtyLFWXNtS8XM6ey8CRE4QFaNzl/vc5XP7edUzAR/fbeSzDfdzjVjmkxx0YMdoXMChk1iBBkFlSj7+Cq4qFixzPQvdJGGLHqkvQXFHoHEsQFnE2+RvRVBlAU4VwdQDNjcHzLT/PqZFzeJws57eULRxo0vyh86pkW37sUobH/8XUY+qzAx4dk3ibbU9BgVL5dBFVCjqUetzCjnziEpIkTYazbiH3yWMLpcnO8STukHPzuyH5nDuQesN8pN68ECk/+Tfihx8soCEH5RwaflxBT6Sc/yek3vImUn+1CMln/gbIzFFt4HkJ44+V/PMQ17kXUn7wAFJ/IR5Mj0GhMlqv67edRTbBVPWaZGkHovYBDDZdQvSs4+JFwh5/BYuANJWQgtq3yz4JFeIZKvC3HGsKIC47Byk/egEJo45G08qFaFz2PJCWJ+HMi0gYPUs7RxO6DEDqz99CvJzT+MkcNK6Yj8Qp5yP1kjmI82Xrs4nL6oKEoTOQdOJtiO83Cc3l2/Vhxcll3df3+L+Z+hyMGEN63pHIbq1tKYi8ChiJImjRRFV+j1tl+rgSHct20i77m8nqAws3NSE+twcS+oxDw+xfov6fv0LglTvR8NdT0bjofu2TQKAZicffDKRmo+7umQi88Fs0PHsT6v54NOL7TEDiIT9CXIM8mEYJQQINiBOwqb1lfynrAqB4PeJSUqUq3rP6KlY9Fn0OAYbnYUSaxAjUnXZxosfh3Cw+rr57Q1kF98VZSjDh8WQfUFeD5upSJM28HInTj0N8rxForqtA/RNXi8cxH/E5yUjoLx5D4RrAXybHByO+xwA0V25Hc1Uh4gce5DSKSRLmyFbgw6dFQ6TsNPE8ZJ9d2+Mwdumv6nNHRIogtStgOO60IHNiirSWYhhkEbjHuzJHLaiDzeLu2r4m7hfm/ri4ZjSnZqCpqgh1j/4QSE6XMGQ2Ui59BckXS4gy9SzJkwJkdtMy4rsNR8ovlurx1MteQ8rlCxCf3Q1xOT0BwZ1mglOzlFm+Dc1JqZK35boet8JB3aUeU59tFKsjUjsDBo1ABO3xV3OchB31fjVc+LJknwOwTJtTs9Cclotmf4VIMwFNItDA8hdR+8B34P/D4Wh480HEdx6ElO/ej/jxp6GpplSKS0bjluWo+/cPUff0lcI/Q/0zV8J/92Gy72K5RhoRQwFD3Y3W6uTxVzL1mXrdUandPYwEuroc5xfXzuNwltBAQoKmbcsRn98P8QUDJOyocoQnaVxuTyT0GI2mLZ8AgTrEZ3WV8/oANcVoXrsYDa/fido/zkJz6SYkjTkJcY0NQHWJeiZNy+ei6bOX0fT5q2j65AU07VgpHsVWPca5F9R6Z55GeJ08/iqmHlOfPQ8jWiSuNjvuWkNqj0UJGUaIh9G4bLYAQi2Sj7gKCf0nIz6jKxL6TpTf14gQmxD46FmgwY/EYbPgu+ItJIw+AXHZPRGX1U1AZiCQkQ/4K9UzaXj/KcT33h/Jx1wnIUgv4T5InHAW0q77FAkjjubqtY5XE6jnA/qvOnn89ezoswcYUSIChrRm0qq1JnyPRflSMtBUugV1/7lSAKA7Un78IpIvno3Ui59HfNchqHvq52jetgJIL0Dj6jfRuP59JJ98O1IueAyp5/8byec+hObC9WhY/Ij2bTQufVz4SSTNugopFz6F5O//E0mn/h6Nn4vHse5duV4mkJSGOJ+kyRKeCHi0XjeP/4u1P0P0ub3NKooUtY8xc/EQfvWJ35b0+2tQWVmF8vJyFBcXwV9Tg3nz5+Pd2f/Ac+cMQL/sOPgDOkCoqzFzgVVdlZm/m+S3uOXf+gV3GuokBBGPoOdoxKXliMdQjqbNH6O5ZKMYuE9PaeZcDAGZ+H4T5dwe6ho3VRUKECxFc3UR4gQw9BwOwfY7AHGdJMRhvsI1aNrwgci4SUdH4vL6iBcyBk2r39YZph25xdwT4oiU6SPJ9FRT+e1LjMO68mac8I81mHj8OZg5YwZ8aWnIzy9AdnY2MjMz4POl6VfckziiIvlijdoVMN57/l94+pzB6J8TD38DBS/5hDkX3wOMXYkjJc0CGqiv1nkSjJfpMfD9EucTfHyPgS+giZxqKySEqdc+Sx1JSc3QtLmJ34KRc1hgrYQoDbXcEsBJdc6RTT3GcKROrpMqXga9HI+UWgOMFn0VwEiKw9qyJpz8j1U48LizOiRgtG/Twc4hKr6r09MJUZx9HrdwM2WVkg5kdQFyezqp/Nb9eo7JTgAio5OcIx6GntcZSEwNnhc8h5ye75RD5ra41E78LSxAhOxujucSVg+Pd2XK093pqUxZd1Bq1zvjCEA8ha0xoAia7jRHBkSxPW6FqZyijGyZNOXv/zqPsw55jus87gs/T8/hcWFu73KObHN/a/k83oWpr6a71GNHn2PPc9hdalfA0FZPhe20borW8RxmJYB47PE+zgQN0VfqbctoX9Ab7KDUrnfGGJBC1skuBAnhpjhH+B57HAtMfVXgELZJiKrXHZTaDDBC7q+y4w7Tc6ML16xunRNbO26wxx7HDpvuUo+pz9Rrt54bdwSKOmCYsNh738LBD9TSm4hz3Dh9nyRB3DuPPY5BDk3Xpz5Tr116btwRgCOqgOEGChOWww7yyn/B3mUCB1Ha6Tzy2ONYY9VfLmdIfQ7Tc2O3LcQqRX0eRn19vc7DqKqqds3D8GPevHl4f+7TePbSaeiRGQ9/fUNwfhCF7My/cMpR+Xu0D5IpP9O2IrteexmdWx+d+UHcahJ9BXzJSdhS2YQT//gGxh9+MmbOnAlfmi80DyMjI13nYSQnJ3vzMFojCkSZf0Hh2G/b1vhP3bgW1pGS4HYzBMGDqcf7FusIQTA1Dn9+34Td5Rm7r9vWzLpY6q7fLsx+ONP1VvRe0+C+WKQ2CUlsOz449h+fEK/bInE0iZCdtQRE+MLhaw3YPjvu8b7DTXTHg6mx/XY/uz1ly/d15TNta3bXzc2h46LH1GfqNfWbeu7We1J7ekeRoKgCBkkFFxRYgsR4yklOqhOGQiMjImjZTuCoCQWeyElcfF3YST3eN5jPKkFXlnKeGVMdGQgyY3nb5vNk6pz7v9nOtXxkd3l23K5r9WitntFitz5ST6mvrK/VifocH6bnqutB4CDHMkWt9m4UdQsrUYSaJAJMFIGzU0gROsRsPdh5JIrCViS4373tcfsyO/U494BpPA2WBkNDZho87p6fYKnNW/g6tjk47nzucu06dl2rB4+3BVvd3NuOvoqHYfuZSuhB/VY9J6AFdT/cJmKRogYY5nqpYIKAQaRVQSal6As4pVW1qGpolNBPFIboLA+/mW4cFUOUwlkaTpTCtb0vMJf7b23/nrJ+NiBCZbUFW13Dn4c8WGebC+Amy7MTpnHrMw2ey9TutzXmcT0nmFq+eCmL5e5ynSBbme590WSrk2279dW510RUij4XV/qDHZspUj3xSuR86j/twGyiLTuKI0lR9TCMHaBwXLNEClr2FXTKR3k9sGFnGZDCl6NEcSQGTEj0aSo+n7h2KeLmCXrLb6b7CkeqPs597lv39nVsdQ2vc3xiisP8Lcfi45MlpOc+/naO/6/75HE9TzsOk5CUnNqyX1K7Rnie/1VuJNmuRb2Uyuhv01ftDBU93rCjFJWBOHTu0kn1nPpO0DD9d9tFLFLUhlVJTU1NoaHVutpa1Pj9qKysRFlpKWpra/D73/8Bneq24B8/Ownxcm5NXb24cNKSSI2a0aRCbdYf9FL2PUQ2L2pPWgs7P1YVhtTafTsut7Pd1NgsxhGvSxQ0Bpp0m+d+nZxMHjyFw5X8yW3dHdymPpHaTYZBPZTaOddneyu7Ao2NSEtNRqOE2Gff8TRKfL3w059eJl60Dzm5ucjMzESazyd4khoaUlWPIwYpqoBBoQYCgdC6GLUCGlVVVSgrK0ODgMiSJe/h17/+NS4/Zgx+efqhgsYCFo1NomhUhJZqmXJ8ncK1HbEuNABRXqumpF9Xx10UPHg+U5ZD0rJ0575Mrd+3Q3FqNJw7wzc1myXlYVtgxs79uufnlo3lY/FWHkFEGxOeFDyPaahOuiN6tMszDJFABhsyAcSAhCK3PLYAv5+zDNdeey0mTDhAvKRk5OTkICMjA6kCFrYOhtN/F936RouiDhiNokgEDPU0BDToZShoiJdBmj17Nh588K84Yr9e+P5h4zGwe76gtbh6bLHkj6qn3oaguaOG+xZ9nRF8FcWqsoQT793uP9OXglSJ4ZvkGVkL/E1JjVSfeRzqGwKo9NfpNsXX1jJ0dNHRQ9PLRvF4qmsbsGZrMf42dyle+WQzLrjgQhx//PGah94FwYLeRbKABb0L69PwAOMriIBhoMHQhF6GPwgalRUVqlhvv7UIL855Ge8vXYoBnbOQn52ORAEMHusoxtXRyDFjGi7QICHIEeOH4sYLZqG8rFo8AYYnDmjo8wue/HUgEn6e5SelSKt81V/n4J3P1ole0Fida7cXWf0C4g0XVVRj7c4KjJ8wAcccdSQmTzlEz8nKzkZ6ejrS0iQUSXFCEacvwwGMWKWoAwbjTrKFJvQy6gQ4ampqFDgIGozniooK8flnn2HHzkJUVlXquVx6jmBjivN1CvdNyK2gllq8bPWnu233oWljQLfJjcF7s3Pd9WR57hGihKDSKCc4ykPmOXS7nb6AltTKIFn9yO5rtAXxenwWzj0HG4CGem0Etm7ZgoH5qXjjvp+gvLBMwV5ysOJ7XE+7V0UFIYYkyeK5jLjw9/A3JaBHz57q1icnOX0B7EykLN3yigZZ2UzVQ5Dr8fqZGZno0rkTho8YoVPAeb+ZWVnwiVeRlpaGFAEKehcWijjPOTb7L0hRBwwKkEbk9jTYf0HQoLdBrhZvg4pIahRD9Nf6RREb1BDp9rEM40gai5VlTNJtV33NSBoCTljFvpj6Oqfuul6p1LVWgI/3xLo2ijEVFhejRLhLl67Iyc5Coig8r0XFYSzrS2Wrk6JKlZQsyk+lCrZASYkSju0CImIIZMlv9XVvR5PsGuSmoBy0L6rOeWbV1TUC/NV4//33kdNUgZd+fwmqiivUw6DceA+Wf0+I92z5WQeWd+Alf0JqflftG6CLn54prr4YJGUZMsbg+ZGUjZVl5ZIZLhP4k+XZ8foJAvwk1iE92F+hfRbyTNmPwfq5nynLiFVqE8AgW+urxieGFyBwiBHWifFZqEJlJEhoKybA4W6xje0B7ilZXpKVYeXYNcyLIFNhWU/zHmgkrJ9yLRc29quXVOOv0bwcBdop3tHq1V8qQHTt2hXr1qzV1qZXr94CHp1VeXjtNF+ao+zac+6AiIKGtJoEEg7FUbmsRXIMxzEkEsswtvvgdrSI5VMeBHE+q5rqalQLUDCsJHC8/c47yAmU4cU/XIaKonIxlKSQTK2Ou0t6Pjckj90vPYwJF9+F9E49cfBBB+sLXVki14x0MU72D6hRRqdvwOrP1Jj1ItND5DMiePC52XNMSZH6CPDzOYZ7FlZGrFLUAYNEgZPdxqigoCzgEXRxFUhkH8+x1BTPHlr49u6S+3x3OfLfLvVqbAp6FFqfgBoIwygCBEGDKd+25fCwgorUf8P6DVi3bq0a0WEzZ+KnP/spRo0Yjfc/WIK77/4DFryxUBW8T5++6NO3jyoaFSs9gzFumtMiSZyrCieK5/SmO8qorVO80zqFDEKYqd2H7hPaE3l8HYWXq/JRwKBnWKeeBUNJho4VFeVYuGARUmt24qV7rhDAKAsBBuXDOnN7d4lGxXw2Q5LPI0nCjgMvvgN53ftj2vRpKrOc7BxkcLiSfQTJjstPw3XLwu5jb8gtg/BtM34DAntODjgQ6B2QIPP+7XzLH8vUJoBBosDJZpymUCEWI6VyNHJYVY7xXO5n6s5vD29PyfK583Lb6kGQ0FSAgoZBIHBCJmc4mJ9GoDdRLa1rrb9W83755Sp8/vnn+sr+qaefitPPOA0HHTgZDc0ElhpR5nRI24NFby/AP//xKGY/NxudCjph5KiR6N9vgCoTPQztHBOvg60lvQ6fr8XjUEWUbbfymdKaAu6tTP4XuWVG+ShgiCyqqqsEKAQsystRXlGG1+bOQ3z5Vsy57ypUFVWogdsz3NO6hc6XlPcoPxzA+MFt6NJ3CGYeNlP7DTgCkZVFwEgPtewGqJGUh5Vl5do+uxbryHkmCurBZ2TMY8bu/LFMbQYYRhS+KROZRsrfxno8CBTGmo9/sk2h2749IXc+pgw/mCpYBQGDXkXIo2DfhBhHjXgT6oILcx9Dkg0bNmCxuOGbN2/G2eeehVPPOBWTJk7UsmlAGlKIkmjZck9ZGVk63PjOW2/jqSefwqP/fAzdu3fHwZMnS7jSSz0KC1PSgj3rBA56HTYcR3aDBpXUFNCUcW/k0hpZWW550QvkvesIl3hX5eJZlJWVC2iU4ZVXXkFz6Wa89JdrUVlcHgIMMuu6J/XitS2f5VXAuPA36NF/CI488ijtJ8jPz0NWZpZua2gncqJMLE+kZGJlaHnBsRkrm2z9JlZfsoGJ7WfaUajNAYPEBxDOBhZkO4f7KGzbb9t7Q+5yyHo9YScEaVSwsD4KDTt00R+nY48dmnS/N2/ajNdfn481a9bgqGOOxE+uuBTDhg9FSlIKyisr9Bp0SbWOrKbqSZwAR0CVjWPyBKTln36GB+57EM8+8xz69e2HGTNmokfPHmoA9CbocXCxFfM6aAxOmEK3V9zgOFHMIHDwmsZ7Kxsjt4yMVFYCfNbfxH4byqVcgKKkpFQBY86cOWgUwJhz//WolJCEfQ6Urxn+ntSLdbB8lpeAMfGCm9FdAOPoo4/RUKSgIF88DGfoUsFVPDWGAm6ZMK97e2+ptbLsOnac7L62mzsStQtguMkepDu1bZL9puDd+/eULL+xeTb0LNiPwg49x6OQsEMMggDB41wpbNWqlVi0cJGEH59h4kEH4NrrrsawUUOlcnEKMCyLrf/X1Y96w3CLSkXl5vYXn6/E72+/GwveWIQhQ4Zi6pSpGDJsKLKzsrS+7NRjC2r9HOyVT5IwJdzldcp3lHNvZeSWj23z/pmaB0b50NNi/w0Bo7i4BOVlpXjppZfQXL4NL/31JlQUlob6MMzw96ROvLbls7wEjEnn3bALYHQqKNC5DjrtOjjXgYDamkxse0/qEU6W310myf07PO2I5Ei2HckEbg+abK43mUpg7jhTp5Xdc2b+cA4ZnrTYrAMVgp4GY9EsUcRVX67Ck088jvv/8hdk52fgX0/9HY898y8MGNJP+zOqaqrQ2BxQKTY0NiDQJODzFdzAUR/54/mV1VWorfdj0ND+ePjR+/G4lNm9Z1f87ZG/4YnHHsPy5csVLOht0CMxRVXPQuRjcrH7cIcs4fe9u2x5WY7Jxc3Oc3KeGevjZpJOc7dXvOMFPCPM9nxCHAxRW67v6JDJxO7JvW33uqccrn8mE+5z660jo44LFqR2B4xwMoGHCz98/96w++HaAyZR6diKMs3NzdW+iT/96U/43W23IzM3Hfc8+Hv868mHMWbcSBQV70RdQx2axPCb46TlbSJQ1AsQNOwW83zmY/66+lqUlJVg5P7D8OC/7sUDf/8zCrrk4t4//xl33nmHTmTLy8vTurJ+Rlbv8Puw+/ymbGWSSeppqMfgeB2sS4glpKPNCqQ5gEHjltRZ6OabMstxWCqj1yagO16h00nNfdYf5QYQkls+34RJlpK+av+3gfY5wIg2uRXLuKm5SScDVVRU4JZbbsbPr7oSaZkp+PuT9+PPD/8eRx49Uw272l+tbzUHxPAbFCgIAqK4e8jMp/mlHMQ1SblVKCktxpTpE/HHB+/CI0/cj36DeuG2W2/VumzevAnpEpawnq3VnxwpcpfpGGNwFEk8JOsU1ol3dU5aX1+nxquGw8VkaKBi7BSUegZBENld5vnM52w7rNuiqgzjdAKdXte5PuvkgIg8iyCIsc7u+/AocvStAwySW5mo6FTEW8U4Dz9sJp6fPRvTD5uGEaNHYP2aDbj/jw/i97f/GR8t/VilRcPR4d8IMQ2AfRPLP/kc99x5P+79/f1Y8fkq9OnXBzOOmIa33n4Lxx93HH5+9c+1ntE0AivXUgMMdnqaMbrZaemdc+ITBSwSWtbitJXUbHt3WdfrdG3b+p1cH5P1arm2Xd/m7ch+2Tb5uNmjyFG7d3q2NVnrQ6Vjy0Tatm0bbv7VTdp3kJ6WrvEx5xpwRieNurysHIOHD8ITcx5BoMGZwh4paqhvQPfuXXHK0edg6TsfIic3R8f0GSuzH4OzRun5DBw4EDfceBP69u2r9Wc8He5yR4Lc8iFbH0ptrR+lpWU6QsLJWpRJaUkJyirKsOD1BUhuqMCL/74HFTuKdCq3uz57YrTh+Xh/SYmJmHzmpcju1F0nbrGjMy8vX2XFkRKOPuXl5YKjJOxbcPczMD8pUvL5ttO3CjBMcZlaDKzurDCHKelel5dX6HodJSXFKCos0vkGr7z8CkorivHYnIf0XZE9MYD/RQoYPbvj1CPPQUJTik5MysvNQ0GnAk05QSk7O0sAIkX7EZx3GJyOSRoD00gZg92XgYW13jt27MBf7rsPO3fuAKc919TWo0JkxJmvBJQtmzdj4n7D8Z+//hYVhcXOuxYSSjDv3hLvjcPRTDmkPP3cn2Hdpq2hl884u5PT7tPTfDp6w1m0F1x4ITp1cla6cgOGgYZH35y+tR4GU3crqu+FhM0x4AtkFZUVmPfaPJRXleLfcx6MiofRtUcXnHnM+YhrSMKh0w7Vac95+fnIlRY0W7adocM07cdobdan8TclysVkQzbvYvv27bjxhuvx9NNP6yzUY2YeguOOOExlV13j10lp+w8diEn7DUJdnXhtQeCRSmliQLQ7FLqPYB41+IQ4LPpgJVas3SBgFIdUzkkRGbwwbwFeeGU+/AIY537ve7jmmmtDncTmZURSPh59CwEj3Cio9NqZV9eyuE+5tJ6lZaXqYRAw5r46F8WlO/DPOQ9ECTA646xj/g+JTanqYRAw8gsKkJsjgCFscw3oZVgoEg4YkSC3bAxMOc+ExK/WLV68GE88/jg++/gDTJkwBpdd8F0cMHmSoHAjRHgSxlXrLFeukMW8rCPL2lPifVl+vt5OTydDwBKpPki8g88//AS/uedBvLV0GYaN2h/fPessTJw4UUMTkjPrs8XD8AAjcvSt89VMechUJjM+MltuZVF6tlDKwdmDYkZo5KhIVFhc/+ZGvY6N97Mj1Mb91aOI33XdBzdHilorl3LhCATrMnXqVPzyuutw5S+uw+cbd2DGGT/AzKNOw+vz30RtoBkZAnQJSSm6tqWupC11Zipx1G6xrhYfzBeflIwmzu2IT0RGZhbqGpvxzjtLcPRJ38OkE8/Fys2F+MV1N+K666/HwQcfrHJhpyfrSwq/D48iQ/sUYJjrai1dpNjKNK+C7D6miqXA0TLxRzkIGtzfKK2mLpoTFW7QIVNOK08mQARBwj6IoyARBAoj9/3Yvdj9uH//L3af35p8yJwwxpSzPDkNe9z4cbjttttwxVU/x/bKOhx97iU4/Qc/xcL3PkS9GHZGbh647H6gWeqbIIBB0NgdJnBIKtAJTqZPz8lFQkoqFn+4HOf99JeYecb/YXNJJa66+hf4zW9/i9H77aczYFkvAwfWM/yebNu9P1JsZX5baJ+YGu4WPsn9m6lbEfaWWlMmYyoVw5I6LgxTXaOjEmUSknDqM1/jfumlF7Fx63o8/MLdUQtJzjvuMmT7CnDEEUdqRyd7/dl/oes+iKvNuF1fahMAMeMw5j2oFyTpNyHLb6BhYYlNnddX/Dl9XgyUM1257ffXYtHChVi4cAFWrlyJU44+HOecdiJmHjoVSakpqBL5SS01tPhK4mXlMK/PoeOsTAkt5L7eWPQOnpj9Ih589CmMHDkShxxyKCZPmaIdrwQKvqkaWh4gOHVeVzETsA0BbVBGkZCPyZqp/bZtkv127+to1OaA4X5obvR3b4fzNyE+PHcZ4dvGNApORqJREDDsXYkQYGxbjwefu0vj6UgSAaNL98648MSfIjuVgHGEAEaeAgaHDAkY9nIVwyO3pxGumKas7nv8X2Tnk93bChoCFvR8OMeBHaBkezmPq4xx6Jnv2vBcAuwH73+ApUuXYNUXX+CkY2fhu6ecgOOPOVrKaxKQqQnW3bmuXc/5Ibog52gIJgDw5sK3cP8jj2L2nLkYMGgwJkyYgPHjxiNNgJOGnymAwuFvXxAsmI+p4xmKV8ZQyAUWdh3b5rW/CbnLdXM4QBnxd0ehNgUMe1CqjEGAsG22ZLYtB0LHZEu3KXSm7u1IEcviYjlmDGxByzhSQsCorMTLL7+MTQIY9z/3u8gDhng2Xbp1xg9OugKZyQWYdcThyMnORS4BQ2J3vmhlr28zPOK6n9Eit4wpXnsevGeydg4LaHCGJb0LDqvy9X++rMcRJuYrKi7CCgGM9957D0U7t2PKxAn40UXn4YjDZmo/UEO9M5zd8vkACQOTEjUUe/+jj3HrXX/EosVLkZdfgAMOPBBDhgxGbk6e1o0A4byd2rLMIb/1Yf08xi1eWIux7o3OWB6nLNe2/Bk4yH+6TTavxo7ZtpXVEajNAMMeFhXQwMFxdwPakjGWd5SzBTjIzGdsDy2SxDKd6zoLxLDl5MpZXCCGE5PYir429zVs2bERf3n2N1q/SBKBqnO3Avzw5J8jIzEfM2ZOR3ZWjoYlXCCGLaktQ6f9GkEFjCSZXN0yJpv8mdqz0qUVCRwNjrdhCwyZ3NQTkf2c2LV6zWosWbJUvLQyTBo3Gr+46gocOH68Gj7P4z0xXbFiJX575x8wb+GbyBSvatKkSTqvIis7S++XwGDL8TnhhzNaRI9L5RIM1cIN1th9j3tDltddpl2HTK9GUwmH2O9koMV9llo5sU5tAhhuBTTjJOt6mRIK2FJ4of2inAYqZHcZ9vAiQaGyhHk9GoHG6FyCj/0Y4mWwQ23BGwtQWLoN9zx9s9QvOoDxo5OvgS8uG1OnTtZRAVuCLj096HYnOYAhlY6oDFqlYNkmc3sOOp3dgEOY/Ro2JK3gYUsYCnOWrPYJiefx5aovdWUyToY7YsZU/OyySzFyxHCs27ARD//z33jkH4/qvJMxY8aid5/eIe8hOSW5pY8iJVW9CfO0bAlDA1GGIUzJlM8uxune3kMyWbvLtOsYSLEOTp2cehHI2I/irl+r9YpBijpgmNKRqWxUMCqbvkAk21Q0srZMwvpCkYCIAUdbAIZTN+v4lLCEE7h0GboKXb/zncXvoKyyEH96+ldRAox8XPKd65EQ8GGiuOHp0pqydaV3QYNpWaa+pcMzUjIIJ7dMjLjJ3woa8ky4bc8n3ONQDi6SrJ2itX49lx7I+nXrsHb9epQWFWHmtKl4Z8kHuqZFv/79xaPoo8ZHj4GAoSAhoQdTDT2C63aSw42RdW4xSOce3PRN5GV5nbJbAMOAQtdnJbhJvclaV/5mXen9yDlaZznfyrByYpGiDhhUMgqcykU2ULDPDDD2pTJZTEzlM+M1wFDQkDL29qH/L7L6aasZ9DLoWVRVVqniv/++uNW1pQIYN6qBR5IMMH5y2q/QVJ2IsePGIs3HFbcykCbehfZfiLFQ8Uzp2oMoI2N7JmTKjOEkn5cChzxXfobBwIPPlPKkF8K6c1SFywdwRTNOSuvdsyetUo/Z6mLqTZjhiZehYUfQ8HQURORgRsuU5DZE1jHSctLyhHk9u7YDBM6sUlvEmfdgXpF9ZoD15/n2/KzOsUhtAhimWI4yUYmcFohGyQ5GUyr2uG/bthXbtm5T5bN+DSqAEX9T4EwjQSzLjMBAwxYCZnxOpV+/fh3iUprwx2dvQFPwjdFIEQGjS/cCXHrSjSjbVoPevfuoobBjj6nNBTFFpcJF6t53l9yGaGQyc8uO77qo/ILMe7PnqKnskww6gmHE/ivG/QYGTHVbvCkDSabMYwBhcrB6kdx15HYknhGvw3tjasSy+dvq2q17N3Tr1h2ZmenyvAgSKRpKEjTI9iEjAz2rf6xS1AGDSkKha+sTBAsCBZmrTrNFJ0A88cQT+PiTj0QxpFLxzRqTmmFESgH2lEz5GKuPPXg0fvzrs/XlMzninBAB4uvhOfmZuPf6R7HopXeRnJqkvfD7Grmfwe4+j/BzmM9Axsqg8YSXx9+7Q+584WVEg9zXYL3Zp9PcJPtETfffbyxOPfVUBRD2NzHUUi+R3oZ6SjbK5UwOjFWKKmBQuC2tTcvEKHtfg9+4+Ozzz/C7W3+H7v3z8Z3zj8KwCf2QkCQKw1rtpuK0CUl9Iu1dGLFEXQU8ikOmHkWYqAfyuBobmvHF0nV46qE52Lq2GD+/+ioMHz5CPQ2GXAQNdlzbmqMEC/WY9iXd3gOKOmAQKMy74FuFuoCsgAVnCrL3/JZbbsFBR47CBdeeqv0adf76fVaYEsFHpSXTMpucsj2KLaIupPiSNfR48JYn8c4rn+K6667DwEEDddV3e3nQl+p8MsJCLg8wWqFQKEIgYEdiTY0CBofXuO+eP92DssB2XPmH8+CvqdUWnK2sZzgexQoRMHQCmniIPl8Kfnfpw8hL6Y4fX/JjBQYu9EPA4NIEHBZmX4aFJrFIUQUMdoQ5oQg7ORmKVOtr0tXVVfjk009w1+134dzrjsHYQ4ehsqxa3HIHLKLh9nvkUTTI9LWxsRlZOel4/43P8fdbXsTPrvwZRo8arUPk2dqfwRmqDE0cL4MduLFIUYM5Rd4g09PgUKkCiHgW7CzasW0H4pIbkdc5U0KVGnH2G533Fhqd17099jgW2N40pv5Sj/O6ZCEuqRE7t++U40F9F72n/luHr3EsUtQAw8IKFZKwAxrOsCVneHIYNT3bh+S0JPVC7DVvnU3osccxxNRb6i8nIqaIPmfkpOm0Aeq56rvovdsOSF4fRhgRQSks9lU4HzL2azjCDxdzshaXvXvtzZfwg998B1mdfILEjSLEYGaPPIoxosOQlJyAikI//nLNUzhsytG6ehqHVfPzCzQs4acs+B6NzcmIRdCIas+L2/Uisoa8DKYhhBZ0JnuhiMcxzOplhFZQC3oeQX033SfFcjhCiipgWIeQ/gUFRebsPhUa+ywo8FY+9uOxx7HI1GfqtVvPQxy0g1gNR0hRDUnCR0i4fD9DEi4W+/r8+Xht0Qs4/9fHIqtzKhrquKalF5N4FJvEzzUmpUhIsrMWD137Ag6beiymz5iBjPR0DUlydBLXriMlXkgSRrugayvcJOz+YLHHHncEpl63pu9ujlWKekgSzuGCay0e9NjjWOZwHW/NDmKV2tzDcAuN49f8ulVrQvfY45hkvmEteu3W89bsIFYpqoDRGu0iOPlrrePIY49jmVWzXXrekajNAcMhR4gcatIh1eBwlG177HGssVt/bQjV9LwjUTsBhhPDcfl5Z9zaY487DlOvHep4o37tAxhBN43uGuO+QCtunccexxqrHos+h8KQDhaOkNoHMILASyQO6Ey4lnn5HYvpQblntUaHOZQX2uY7Oa7f0eK2uk4sMfWY+hzyMDqegxHdiVu6DkbYxK2iokJdcev111/H7Ncex/HXjkNON2fiVsdYcYridHrGA031shWHxIRk51BUyB5fuOycenxzapZSuIwedH5BS7mRKr9jENfE4MStsm21mP3rD3D8Yadj+vTpuuJWQUGn/5q4xfdJOIISa9ROIYmT6LslEvO5O49inTXEaiRQALm+zvq9VGdf6+fvLVN2Ff4SjOlxKG49ZjbSkjKRGJeE3x37PA4ZcBJKanYGQav1/LvFUmdex99Qjcq6cm1Fq+sq0SWjN24/7kWM6DIR5f4iPafV/N9Cpj6HOj2Det6RqH1DEhAwuEiw4851BKaRVotxDSzYH7cc/R/ceMS/kZ6cjbpGvxy3e+W3ySkGLoornpX8xbMVlz+6szxOucgP3e+cw4dl53CWLEOResTHJSA1KU1bq5qGSryx6mmsL/5MwYMKHF4+y3Tq4NSDKRV7lzqIwvMY61LfWItOGT0wIH+UHo2PT1CQWLj6Weyo3KDX53V4rpXB81imXce5l/++35ZzOo4O8F6p10pBPe9I1C6AYcArXpwKONDcOlrHItcHasWokjCu1zRsLluDKgGP/bsfEvQwGPezFWoUD2AHiqu3oaGpDoVVW7Ctcj2KqreiNlCjxwkIFXUl2FG1UfLUy/nbsa1ivZy7WYChwulkk/IaRXYEEAq1Us6/5+0rsHTTPCQnSpjXWKflF9dsw3Ypf2fVJjmnNJiXCxk5aXltkRj/Rj2HdSK4NSogNWBT6ZeY2v8EHDfy/7C1Yp3m31m9CXcvugyrCj9CkoRbLKMu4Nf68z62S1ks02TCeynz73TuV+rEe9guYMNzHA/TkUvMszwLypR6TTI970iU8MvrrrsxuB1xclYaEsULcF3PBl00h2thcBWidevW4bMvl6HfwblIzohHoMFBZs6Si1Wm4dYGqtEpvQfOPeAaPPbhnWKwDZjQeybmrviXtDiOB0GDPG7kRRpOrCv+HGeOuxKHD/0uBotXUli1FaX+HWKAtZjU72gcN+ICLN/2Lo6R9NiR52FU98mori1T4yc49c8fibECTi9/8YgCzc+m/1m9jS/FmBPi4pGWnIVjhl+Ao4Z9D+N7zUBCQhLWlXymLXyDgFiCgNvUASdI+edjiqR980Zge8UGNfCURJ/W7cC+s5CZnIP9ek4VbykTZbXFuHTqXZIWYXP5an3WBendcfyI/8ORw86W849EZmoeNpauUECrlZDm6OHnYWzPQ7GxbCXOHn81Dhl4EjJScrC2ZHlQdq3LNGZYZB+X0IyainqsfqsIIwbth/79+mlfRRq/j+taz5NrYdhHjWKN2tXDEC0RQbMF6hjc2CyttrTeo7sfjJr6KnyxYwk+2DQfOb5OGNxprBh4tZzXiAYx9EH5++PoEd/Hd8dfhayUPJTVFGLaoFNw8cG3SQjQU7yIcvTOHoTJ/Y8T8LkWfXKHorByG/brPgWXHfoHAYr9JFyoUUMjseXmx3UICj1zBqGqvhRZYrRXTr9f+zTY35GckIoLJ96Mc8f/ErVSP3775YKJv8LZ436hLWNJ1Q5MkPxXTrsPub4uqK4vFw9nkwJhtXg164o+w5bSNcgQEOJ1CtK7SfhVgl7Zg/GLmQ9hZLdJ6lXV1tfgu2OvxHkTb1SjqBOvaWCn/XDEsHNw6v6XaQdhZkouzpnwCxzU5xiRS81/yTJmWfSZek3qiB5G+/RhBIktIls5ddc7ANc31CJRWuwZg0/D8u3vSAixDp9vW6yfWZw68AQBkUptieiCl0sLTmPfUPI5bpt/Pu5/52r8eu656JU3CFMEJJinRlpmGjI7HW+bfwEeXnI9fvnSd7TfgN5GdV1FKE7meQQNpjRQturHj/oBCtK64levnon7F1+N371+IV76/GEFH3oeeeldxRvqJseuwa3zzsPtb1yEW+U62WkFOKDX4XLdSiz48j/YIR7H1vJ1eOKju7Bk4yuhWL1OrsH7PmPcz8To63CL1P9fH/wW97z1U9z71lWYJJ7GhJ4z5V5K4K+vUID6fPsS/PmdK/Db176n3tREOYeeki3RGOtMfaZed1RqV8Bgy2XrHHYEptL3zRuJ7NQCPPvxX1BUtU37AGZ/+hcM6zIBeWndVaF4z0ni7ldKaPHW2hcFZJLlQSRi5c4PUekvRW8xaLq58fwMnBxZ8OVTCi5JcSnYXLpKw5jeuUPkeKJel8SU5SbEJ4pg2XEJ8XSmYE3xcqwp/FivkRSfgkffvw1Xv3CsdpBukHIuf+4oDV+mDzxFw5JR3Q5WsCnI7CGlJsjVubq1BDACUklxydpdybrxOroGhNzHsK4H4DMByM1lq5CakKbX/2jLApFHvXoWtQImCQkp8IuH9fa6F+CLT0dp9U4FkoyUrJD8OgLzGWifUgeldgUMuqsdg517YeffYYNPl9AgCYdKjP6TQ/+IH025AwM77498ackn9jlCvIIyHWkgGNRKSFFeWyiGnKyeAlvgEv92pCam6zCpE9c3aqclDZQvNbHsstqdasCZqbmipE5rZnUhNUuezNR8CUFSUOaX8iWNEyPm8dTENPiSM1W5M5Jzcf6kX+GmI5/ASftdgsOHnq0dnOlixPphJf65ymUd3b+ldsiT0IVGUirXYchDY9HPH8pfmb9Y+zLSktKde5G61oinofcvTOAhAFmZHYk7KrUrYHQUahZjpPLnCSiM6DZRRxz6FYzCUPEqhnc9UGL9HiirKcKYnociRYxHDYVKRQ/LtoMUJ0DCfQQHh7jlbIsqBlM5R1JtyVrVTXauOkDieClCwfN4bV63ur4Mk/ofJV7F9/D0x3/ScOLmV87GXQsuQXHVdvEcUuQ8p7UMbzHdvzmawupbnVruRfbovWhXtvyS/SInUnPwHJ7bcp8exQJ5gPENiQqv3oK48eygZN/AHxddjltePVsM8Czc/Oo5+NXLZ+KJZXdjdI/JGNJ5rJxbpXnZ2mendtIhSYIEY9+8tK6obijX/gmCBz2JfF9X1DfW6dUaxM3PTesi7n4dKmqL9Xg4sT48VtdQgy6ZvTQPPRX2O9DAmSdRvI6+ecNRISHQ/FVPaJ9KlYBIZzk/N62zzr+gjRsA6FAvWQHC2cfrlFZvVxAqyOiunZckDpXyFHb2cviY9VAgjHPAIc4FOG6w9GjfJw8wvimx1QzqPIdPt5Wv1YlTDgA4PecMVT7b+ra2ssO7TtROTxpxTlonHDLwRDG8RDmvGWN6HSoxfTZW7PgAiewjEONkmDJ98KlIT8rS/o/BncdhoHgv7DzU1l9ab/YVmCfAbceo47F4w8volz9Sh2dp1LzO2eN/gbtPnq/9LOxDyPLlKkjQwvvkDsH0QacImCQrGBBgmI/XyJQwhSDDYVi7Ds2e9/HehrnYv8dU7ctgB21iXAqmDTxNy/hky9tISfCpLBql/iSDC5t/4ZDnacQCeYDxDYmtNb2Bg/odp+HIwjXPqqFYnE7DTZUwpKR6Bz7asgjHj7oIPbMHq6FwRmiXrL64+rCH8bNp9+Gq6fdj2eY3sfDLZyTuzxIbomE2aHlXzLgflx5yN24+6j/YWbkZz31yv/ZRJCWkBg3cuRa3eT12cj6//AEs3/4ufnLIH3H1zL/hxiMeE0A4FYukjsU1W7U+nEz18xl/xWVT/6h12Fi6EovXvYwjhp2F08b8TCdXrdz5PoZ3OxC/kHqeOPpHUq0m5zoCBKTHPrgDRRLG/Hzmw7hk6t34+WEP4uT9f4SnPv6zXON1rY8zKtNFwYZeBYEoJzVfvRDuC6GuR/s0tcvELb6Utn7dOixf9RH6H5SD1CxpTQOOIsUa0Wtg60ljKBX3+43VT0mrW6f77X5oyA3i4heJcXJi18qdSzFOvJHUJB9+v+AS+JIy5awmvLVmNp799C86h4KzBjlJa1CnMbjjjR/oDFBOAV+2ZSGe/OhubK9cp0O4vES5v1g8jvfUk6Exf7rtba0LjfI98TKKa7br/q0Va/D8Z3/FvJX/Vo+FfS0rd3wo4Ydfrlev0715jLNLOTmsvqlOvJ0lOpGLs1H9gSqdjLWlbLXe4/Jt76C6vkJDrHc3vAJ/fSWSE5O1k/b5Tx/A/C+fUFAjHLAfg57Xqp0faacod4oPpiM062R/rH6cOERyPwmJEppWBrDunTKMHDwG/fr106+6d6SJW+3ytmplVRXeeP11PP7iw5hxRV/k9EhFQ6240TH4tirvkx6AX4yG7ni2tJr0LNxk59Doq8WoUhJTpFV/CH3zhuEnzx6ungaNndOsGZIkxqdoH8SZ466SFv2HuOyZGdhYskpnTTJUSddzOMQJKdOv8zuyfXkKUhyZ8EmLTtYORfnHvgn2SbBj0jmWqWEL68T+E50fIr/pCfD6nGVaVVemCs0JXOoN1UsdJfxIEdDiKE6FhDPp4jWkJKbyEnKPjaiUPAxR4iWfLynDuY6AAq9r+fkynsmDU9+ZmaM9uqF3FJukb6umJqBsSy3m37Eepx9zHqZNn45M721Vj9zEh86WnMZRkNFDwCJRDcJNdg4NkrM46RkQHPi+B0OJvLQuTmejrzMS4pjfmVvB85IFXAgE2b58PYeTrXQYVgxMy0z0aYejhSTc9iVn6DEl0UmCWKeMXnqMoQH7JEjsnSAA5Gd0Q6fMngIWOZqPXgHvJT+tm/xmP0qi1q2TXD9TzmG/CssiWDjXoXeYoOewjsxr12HdeT+c2cm6UzYmj5xUMSQvJIkp8gAjAkQDoHEwNHGM57+VX88RI2kUT4JGtLNqMzaLa8/z6Tlop2Czs4AsiQDAORQbSlZKC8/OR45y8LyWc5zrctUy6zh0Rih4HXcdODJieVkOicd5hlMn5+1YO2Zlsj5OOcHFmmWfAZFeR/5artNyjrssEs9x6m/lOfv0/NA1PIoF8gCjzalZvAYfHn73Btz0yhnqvnOfm2hcaeIlvLriH/jJM9MlPCjRVt0jj9qb2hQw2JK4+dtJ9DSadQ6Guu2tuOOUDfdz5iTDBIYaznkexQp1VF2POmC4hUald/O3lVQW/AsLHdxk51gI8FXnebRvUriu8/kZxzJFFTBU6Tug0DzyaHfIre/hdhCrFFXA+DqQiPlxd488+hrSF/BcOu+2A9pFrFLUPQwTmltgts8jjzoytabz7u1YpDYJSUxIxm70jWGw9cij/yLT53CdN/ZCkq+hEFgERwEIFJwSq1Nj4xP0uJylxzzc8CiWqUV/nX4K6rdNAbfwWy0hCBqxSlEDDENUYxMc04Rgyt+cIiwilorELup65BH1l0CgOt2KnjMNt4lYpKgBRsi7EDYhEnG5UG1ScpK+hMNz+ClBvmugS8bEMPJ69O0l6i31N050vLHRWXSI+k09p75T780GzCZiVdfbxsMICotMQSYnJevbe3UVzfp2X5wurOIAi0cexRo5ektdd/S5trwZaWlpSElKUX03L4N24LaLWKSoWygFo+5ZggMWiRSgxHc9enZHt/yeAhqNSEimjwFdZ5LkeRoexQKZnlJvqb+JyfECFo3o0akXuvfopnpPfXf6MlrCklimqAIGhaPIKqm5ZvQs+Hvw4CE44IAD8PFzhfCXNiHJ57wrYYvPiofncSxxW1Br121Hpp5SX0nU3+qSRnzybCEmTJiAwYOG6H7qu4XibnuIVYraehgkInAgEEBDAxfQqUdtrR/V1TWoqKhAdVUVNm3ejNtu/S3KfOtw6I/6ISVTEDieD4GeRmwj8beNGgNNughSNIgNeUKSeKqJUXeI95CcfguCRl1lI964Zx3y6vrj6l9cgx7duyM9IwNZWVlIT08T4PDtsoBOrIJG1AGD7hoBQ0GDi+nU1gpoVKOivFwX11m5ciXuuedPWL1lBSac1QU53VMlDx+EBxgxQ81xSM2OR1oOO7KD+yJMNaUNqBWj3JfsjEARL3paurUW7/9zBwb3Ho4f//gSDBw4UD2LrOxsAYt0+LjaVnDRHOsA9QDjK6hlmT7H06CXUVtbp0v1VVVWKmgUl5Tg6af+g1WrVqnXwW+vtlV/Bh/c7lwj/Bz+Jlt+O+7eJvG4Wzlse2+Uxq7VntTaffL5dh6TjFm/6KeGHZ8QWWOIk2j1xV+uRs2WXV369jI89/WTBAR69ewpIfZgnHLqacjNydEVtTIyM7XjMzU1Rb0L8yyc/rzYXaog6oBBwydTqdTT4LJ99XUKGn6/X4HDL0yBFpcWY8WKL1BdWa0AwzzM61bSaFG4IZC17lxgJgh6ZAU+uYeQ11QfTBvqnfpKPq5xwbAqThSjKdAoBuR0+CYlOkqTnJwUck8T5LcpExWQysS5KWYMppzu7bYiXs8tD713XZ+13vEW5fnV1tVizZo1qEjchmNu7YeqwoDcU7CASJFEIk9dvAb9evTDgP4DVX4+nw8pbLnZassFVW4umbG+kSSTPVN7Tnxm6ZnpGDp0GPJz81UPfAISBArWj2CRkiyehQCInc+85FilqANGyPCCoGEGRwMjaFD5qHgEDQqcwtTvbMp5ZAMMh/nAWGaw8G9AVo4pltXTUqtrI+sr9eK2A3S1ynUGeP4a9ZIURMSYKsorJcxaIfv92toMHDhI13KksrDHnK6qT1ocVShfqv6m0lOxFFQIHgQSUTAzArJbYVu2IyOLryK3jCgPyqFO7p33XVVdJR5iFSoqy/Hee0uwsXo5jry5L/ylXJs1spWih/HMpWsxZtgETDxwohpkZlYmMtIzdJsGSflSXo58IicXK4upyZ7PQ58nWcCK+sLnRrDgc+XzJFhw+gA9EG0YgnVzP8tYpKgDBskMUVtg2VYDJAswsIUmaHCftlzCPI+GypT5lNnBxF5p/slvCp3p3pDltfzh9QuIV2AGYt4EQYGtqQKG3+mH8Ut4RSCpFQMqLi5R76hEwquTTzkVZ531Xdz75z/jtblz0alTJwwbNkwXgmWrSOVJ86VpfGugkZriAId6HsKmkDYc5wYON++tDHaXeA3KhPLgs1HPUMCd919eUY4K4bfffgdryj7C0b/uh+rigHhUwcwRIgLG0z9egwP2OwhTJk8Rw/QhOys75PanpOzamRgJmVg5Kueg3ukWfwvzmZAJ7vrMdklZF6c+BhZkEp9hLFObAAaJwqfimfKFWAyOwNHQ4ACEsZ3HfMbfRBksr7scstVJr8e6BOtD46irc1Y9V7CgFyQAwRCquqraARM5d+OG9Vi7di127NiBQw+djp///GqM2m+UlMdrAh98sBS33HwLlr73Hrp266odYj169NQ4lwqVlp4mHkiGeh3cR0DR1IwgOBzN0MWAg/W31O7HtiNJbjlRLgRPykA7rSsqUVZaivLKMix4fSE+3/luVAHjmUvWYvL4QzFt+jT1LHLz8pAlXgaBNzXYqlM+0ZCFlWdlk+1ZGBiQk5Icj8OelTHPs+cV69SmgGGpAYGBAlMqJON+Nd5mCw1ajJpkD25vyJ2XqZVrdeD1maqXQ5AIhh8EDYJEjRhJZZXTScs87KD98ssvsWHDBhw2cxbOv/AiHHrIweKFNAuYOF8Fk4uou+xLjsPc197Agw8+gDden4d+/ftrJ9mQIUO0XgSGzAxRfvaoi/L7XF6HuwX7KgVkatt7Kx+SW0Zu4v2aB8hwhEPiFZWVKBVvqrS8BPPmzsfHW96MKmA8e+k6HDpxJg6fdbjKKi9fACMzKyQzA2C7B5MH6avua3fJXaYxR0c0tf4mYV6f2/aMeJzbTK2cWKc2AwySCZ0KyG2ybTN173cfIzGfzs+g0IP79oiC+XYpXzs0HcBQj8FCDzEK/eiSn663AxaM2VmfNavXYMnSJZKuxgknfQffOeU0zDxsuoRY0O+tJKqC0O1kHZ3l9AlGbA1Zhdfmvopnnn4Kzz79JAYPGYoDJhyAQYMHaX3YcnLsPk1cbu04o9dhfRxBg3BYrhF0j6mYSiycJOXsNYWVYbLnfdcHAcNGtxiOlJSUoqS0CK++PBfLNi+Kuocx4+DDceSRRyEzKwv5BAwJSzIlLHEAQ0BVwgDKZBfD/KZycZXlLtcAwZi/bZ/7GLcpR253BGpTwHCTKSNTN5OooCTbR2Hbsb0hyx/OvI71pTAksg5N7dQTb6KmJggcAhhbt23FnDlz8KV4FrNmHYnvnX8RDpg4SePVsrJyUQynVWmNeH2GOxxByc3NkjLr8d67i/Gvvz+MOS+9IIAxWMqchT69+yhAECwIGulp0nrKtnobChxOiGIurymkXcNS3tuekFs+7m2SgbbjddUHw5EK7btgv01paTFenvMKPtq0MOqAMXPyLAUMzm8oKMhXwODEKMorlYAqXhjl4TbSbyKXcLIy3OW65e9m29fRqN0Aw03hD9L9273NB2C/3du7SzzfmF6FhSIEDbagDlBUqctNQykXw9i6ZQtefvllvPfeu5h40GRcfsXPMXzEaDVknscy2Opr+cKtqYh7P68XL8ZOt9rvr8bnn32Gu++6Fe+89SZGjhyF444/Dr0FOHLEKHiP9Di0j4OtqHgaNArzNMw4SJFUTgNsAwsL1Qie2tlZ7nR2FhUVtwtg0MPo3LlTCDA4CpXM4ctgPwZlYvJgujeyYR7TL9t2p0bhZYf/7mjUepPYxkQhu9kMgUwFMHb/Dj+2O9zi0jvMfSyH16Rx0CjYV8De9/Xr12P27Odwyy03o6GxGQ888ige/td/MGL0WATEnkpK+XlDUSixjgYJa8iBYBrO7v08v1HyFZeWoT7QjKECPg8+8iQefXI2fBKS/O7WW/HE449htYQ8nPBDz4L1otGGy8d9X7YdCXbLhqwkhkJjMWZ9KLPGJidtC+J1jLXPy1UfksnG6u5+znvKbvm6y7TU2J6JcUenfQIw2orcCuZWNCo9qXOnTtiwYT0efugh/PznV2FnYQluu+vPeOTfz2D8AZNRWVEtHgg/Js2vj8WhQZCjvqFR091lO1/zyzbDngrxVAYPHSXXeRZ/+svfUC8Adf11v8QDf70fn3zyibrfVHyGTq3dAzmS5C6XwOBm9vPQI9M+HwEyptwfbaIxshOc83fs+hpOCnAwnGwK1s8AxX0PHkWOvlWAYeRWJPYtpKSkorCwEDfffLMY6nViwH788b5H8I/HZ+PYE0/WkRIu80OPgk6Cegti9AEx7L1lBRApJyC2FuBLW+J5VFf7MXXGkXjoH/8Rj+ZJxCem4qYbb8QNN9ygX7vnh3xpGKRotGZuIyOb8SlQqGEGgUK55TfPiTaxPgZYdn16XtzWsFLA1AOM6NM+0YfRVuRWIioXFY5uJYdGf/CD/8N7776rLfnQYSOQk5sv8XmJjsywk3H8ARNx1XW/0VYtksZKZeecgtt/fT0WvT5X68X65eTmiTdTgS8++1SNYsyYMfjzvffpUCyP6xwNqZe5wpGqkxkbUzVEslyfw8zqDVVUoLy8TGRThpLiYgmtivD6vDfwReF7OOqWvqgp4VT4YGERIg46PX3JGkyZMA0zZs7QSVt5+fnIy81Fdk6O9mNwKJozK9nHQ9nwuZp8tIwIPrNvM33rAINEY6Bh0hiYVldXYfPmLdp6V9dUqzFwUlKJAAYnab351psoK6/AE7MXSp7gHIsIEd36rt174PTjZjBIwaSJk8QIxCAEMDgakCPbnG9A0OratasOIzKONqPgNikSBmHysZaa8iFY1dXV6kStykpyhY4KlZcJYIh8CB4LFy3C6uKPcOyt/VHFTs8ITg3nfTVLec/8aA0mjp2MKVOmqAwoH4IFO4fZCcp9HLqmt0igIFM2zE85eRQZ+lYBBslaUDMKc2kZmvD9Dx0yLC8XYxDAkBaU8w1em/saSsoq8OCjL0o+px8hUsRJXl279cT3zzgayfFNmD5jOnJzcrUF5bsoBA1bU0FnfQY9C7J1ukXKIHhfxgYW3N68eTN+/OMf4YsvvkCB1KsxoR61Fey7cIDX769B1qBmHHGDeBgEjMTItea8Pt9+fe6KNYirTtGwzPEeEpCaKbJoTkFhUZG+Y3LHnXeiS5cumsc989MDjMjRt0qSVCQqkJvN6NjxSeXnOcYGLuaRsM+hPuCkkWSW2SSpXcddBzL38f0WqWiovmQSU54TSWJ5Vj7rxHdeZs6cqa9xr1q9CluKNiB1dAX6nNCErtMD6D0rAcOOykF9NUeBNFuEKQ7jzylA78MT0W1GAH1ObELKyHJs3rlB11Pp07u3Ai0nt1FWJpNIy8WjbxlgmKEZ0/jYCpHtnQ26+g63bPM4J105LWp0WKBJ60OlD7++Tg0Putg8xw0axpEmGhuvw5T9A5deepn2oVxz9bXokSWhx6YAmmqbMP6Ubph6YV90H5mNQH2TLq1PYp32xmgtj+XnrFmu5tV3XB4OvbgfRh/XGYEq6PX7dxmKG268EX+658/4/vfPU5lZ3mjJ5dtO31pfjcpkhqegoWDhGKl1nOmryYlOXwFXV+J8jGixNORaD/f1LdX6Cbvj8mgYhLtcK1u35W/nzp3Iy8vDmd/9Lm6/4w6cNetH2DAnHk9dsgpvPbQBzWLUyamJOsmKsqLHZOC2u6DB8+yZML9cXcIbIMWXiOqKOsy9fTWe/elqbJufgAtPvAK/vfVWnHnmd7VeRRKWcHFpy+9mjyJH36qZnkbMZxwKN4Kde7bmaFlZqc5krJTtF198ARs3bcMfHnlRQoOGYCmRIfZhdO7aA5d87zjkZ6XgiCOORE5urs69yM7OEc4OTX22hVh47zQMkqWRIJMnZULWERLty+DwZUBneXImLI9VV1cKiBRi/vz5mD17NmqaSjHqO3kYOKkAib4gwIoHwupxASHmIbVmwHZd3gu9LfYqJ/vEq5MyuFbm53N34MtXq5CTXoATTzoRhx56KPJFPhnpmZqHM2Epo2QCbLDvwpjXM94T4vlWL/c2yV1WeLl7ep1Yo3YDDHsATN1MMuWyfeEPbG/IXYa73JBxCGDU1jmL4tjQYWFhkb5o9dJLL2Ldxq24+6HnowMYXXrgJ+cfh4KcNMyadYQCBl+uImC435WgMbDOBhLctvtyb+8JufNYSnlwm2DBYWVnla3gi3nBd2v4Yp5OFa+pQYkAK6fPf/jhhyit34axp3dBz1HZyOyWrJ+RCNQ3igcn9ZN6s2zZkgu3XI/3o88h0IzkNPGikuNQtqkO698vxSdPFaN7p56YOHGigmlaRjrSfM4MWL5rw7dVGcbxd/jr5SYTN++pfNxk+a0sUvizcB+ztCNRmwKGCdsUkmzbqjCu/e5jJOb7Rm+rkuwBuvLbtWgUnKBl75PQw+DLVXxfhICxXjyM2x94VkdTIkkEjE5duuNnF56ETjmpOPwIAQwBiry83LBFYgQwxBDcChrccNK9lQkprAyTPd+0ZcoOV3pgnLdCDn+blzIibd6yGW+9+ZbOTm1IL8Gg6Xnoe6AAR5cU+Es5usQ5LQniQMh15J/qAq8l4UxiUgJSsxNQ+GU11r9bgZWvFaNrTh+MGDESU6ZOQUF+gZ7vyMOn62DwRT1b4UpDyGD45n6b11j+2zsZBfPp6uDB/CyPz8FdPn/bPvcxbjMftzsCtRlgmLCZ2kgAlZHbxtFcD4MUnp/bto+tKVtQAgZbUH19WwCDr7W/8vIr2LB5G267PxqA0SCA0Q1XXnQyCrJTMPOwmQoYukCMGAdfPnMbBRUwnCIhFxLLsHKY6rMIPqOW8ESAQ+TkLLHIt3vrnFBFPDGuSEZat34tvvhshXgcHyCxsx+9D8zC8FkSqiQnSJjiPHsjrn+anJGA0i01+OKVUmz5sBLpzZ0wduxYDB8xTBcb4vXpTZgsnIV1W9YLcYPFV4Ui30RG7rwtoBAEBNd6GO7r23lWF5KlsUxtChhuBQwxFTH4erl7v53HfMYUuD24SJCVR+a1rPVky8mJSlwghoAxf958bNleiF/f+0zEAYOhUIEAxi9++B2J0RNwyLRDkZ2ZpWEJJyI5y9T7Qsv2sc6RlgPJLQvb5jOwVJ+JsIKGeGPmcRAwCLRc65Ny4+Qunst923ZsxepVa7Dso4+QnB9A/+mZGDGrsyiDGE6cXEf+airr8fHTO7B1mR9J9RkYN248+g3sg66du6vREQh0zYvg2iD2mr+tD8JOaZ2T4jJUM1a7D/f23lB4OWS7lgEEOTwkMnbXKdapTQDDFI+KRNbWShTOWQrPUTxTQB7T84Ip8xnbg3Nvf1OychzQcsISWySmrLxMvI0aLHpzEXYWl+NXf3wqKoCRL4Dxyx+fgoyUJhx08GTxLDI0HHEW0+F6GK5Xt6VFi8R9fx2F5Mw/pkHmc+TzcdLG0DPjbFXt3wiueeqv8aunxuP+uhqUl5ZjxYoV+gYu0uqw/6md0HO/bHz60nasnV8DX1I6Rowcib59e8s9S8iRmqYgwOULHY/C8SYUJARAKAtnxGjXVa5Yb27rPQRDkr2VleVlGr5NVjAIAgPrYB4gU1u3xLyf1uoXqxR1wDBFs1ZKWyhRMFs13DrSdDXqWn8IPGwhXgMbY3t4kSAri2wgxevbupWV4mUQPLjCVlllLW7843+iAxidu+GGS09FEvwYN348MtMzJFbPCHkXaiCieKZ0kZRBaxRevslI2fUsQ89TPA6m6mkI1wvoKnCIHJnyeROQqyqrdUV1rn/K/ezQ7dOnjwBFX/GgaFyO0REkeN/qTaQ4q40ZSJhHoQZLeQRbbmOSbUdCRlaOlUk2AGBfiYGE2wNyOmFbVg23+jIfmWXEKkUdMNxgQSDQ1ij4XRIao/UZcJ9O0pHzbDk4nk8FdSusPcBIkJVlddT6ifKzTmwl6V5T6T98/32UVtbhurufjBpg3Hz56UhqqsZ+ErtnSLyuQ4XSwlL57BMEboWLlAxaI5Ozm7jPrmky47NiSjBQ4Ag+NwMMA18HROr0OJcw5Ls65RVl6N6tu7bSJN4njYupGh/vW/cFJ67J/avhxbe4+awjUxK33XVu7R72hliGlRViuaYBBYdyWR926PI52Rqj5hnad0nCQSNWKeqAsUtLJAoT/uUz9hHw+MYNG/Haa3Oxs7BQz6UiusGCZA/Ofn9Tcpdl1yFbfS3lMGtaZg5u+vMLGsdH6vokDtMWdOmB6y8+Hjs2f6nzLpzWq+V9ETMOMimSMmiNwsu364Zfk79bYwMTshtYHObkLMfQ6UWyaLtHshlVOCjYNompbRuF15G/bfubkJVj5TNVDtaJz4jrqBx22OHo3ae31ptrs3pfPtsLMuXRlputj7QyoW+rihFy3Uz2YTz+2L8xb958ieV7YviYg5GWkaW956yYPaj2Ia2BAlfnHv0xYPh4jesjSZRPssTna5YvxXYBjOBNy3/OtT3a90gBJJhWV1Xg8w/fRvHOzTrCdfrpZ4jnkSQeIt+e5UuDDCsZWrWEVW7wizWKOmC4XVX319s5z4H7Hrj/frz19rs47ye/Qf8REzRW17iU+YXbS6ysu5ECn/wMNNTLr2jUqFkUKThkKsW7rxBriuWWW6RoX5OB6SVTNiYMK9d8thR/u/saTJk8CRdedJGGUzk5uTrC4329fTeJrScBw4lr63RWICdF8bVxxr0vvTgH//r3Y7joF39Cn0H7obamWhROwhDJu88JNGgIrFekjYJlUlYESo9ih6gH1FL2vaWmpWPDqmX4662X4qzvnomjjzlK+1u4TAH7o9IlPAn3MmKRogoYjF0tHOGaCfQuuOI0vYvCohLcfdcd6DN6OqYdfz6qK8soeR02JEWjpfLIo0iSNWo20TAjMxuvP/cQNi1fgJ9cfgU6d3I+hcB+KXoZXMuDHgY5Vvsxog4Y9C7YS86RB446cKUmTvB56623cO+99+G7l92JXoPHoq6mUlGXU4U98iiWiP1t9BBT0zKxceUHePSPV+Lii3+gq4NxxIcrg+nkM58z+kMvI1YBI2p+ERE3xCJMCpRMb4NhCr/8nZFVAF96DuoETBoDzXKsSVOPPY4lNr3lLGFfRi7SM/NUv827Nt0PnyIQixQ1wLBYn2wCI1Do7M7gitNxiUlSA37XozkqK1l57HFbsaO/AgKcJ5KUrPpNPbc5KiHQCNrEPtdHt5vUNh6G8C5j8jaLU/s4hAOyv4nTszkJyGOPY4+pv/rpCNFn6vYueh7U+3CbiEWKWh8GBUJk5Yw/G04tKytDUVEhampqMW/eXMyZ+yZOvOjX8GV1RmNDnTdK4FHMEsONhKQU+Ct24tkHrsVRh0/BjBmHIT3dh4KCTsjJyQkNr3L6eKwOrUbVQgka7tDEOIS28qcf9fHY4w7C1Gf9C9N5Y7OHWKWoA4YJx7bdzBGR1tw7jz2OZaZet6bvbjuIVYoqYIR7F+HE9wpaE7jHHscyU69Jbp1320GsdniS2iQkMXYLTZkdRSJg+86oph57HIvs0mPqdbiuh9tBrFLUexm/SmgqOPUwGv8LoT32OHbZ6Z/7L1132UEsU9QBw00mMIvxmPIjNfoxH0s99jgW2aXHobVog3pO7ijUpoBh1BLBOT3L9WQRsqYeexyLHNRf6rMghGp37PZUfDVFdR5Gy3skfEu1OjQPo1K233h9Pp5+YT4OOvV6pGZ1EWR2VtzyyKNYJOcTCimordiBd578FU4+dgamTZ+BzIz00DyMDNnmC2j2PglDlVijdrJQR1AEFSfuc8avPd49duQX1+oxj9ubnenfDnU8H6OdAMMRKAWrE16agr3MUWd5oOI6Nsp1d2HtfA2O2OyD7K4b67+jtAbbS2qc6ciu82KV92XZ7xGrHrv7LKLivLcrtStg6MStQCMCDUyjy85bhY2ormlAWUXdLlxRVY/auoCeQ24tf3sx61Nf78iI21XV9bjslP1xzdkTUC71bmrkuqCt540VrgveX2vHYor1HhpVrx3yACNCFAxJ2LITMKLMnIrur3VeM545rifu/PEU/PP6WXj0hiPwlyun4/+OG4lO2amo8tejwZWP7wc4veDOtr6mL7/dZZMbg+d+1Tn8zf3c1uPBbTLL/6q8PEYXN17FJS2XHCfo+ZITke5LFCDh25BOmTzfruMu39iOkXk/dk/h54WzO5+T18lj+Xnv4Xm43+rA49y2/Ny2PCyL5Se47s/K+K98wesaW724HTon+Nv9PMLztQVTrx3qeCFJwi+vu+7G4HbEyRSTK2NzsV++iMbVwuvrGrB+/Tp8/NlqFAw6GHEpGXJOQJBZ8liYECEWtUGtGFmeAMLNFx6EU6YPRkllLT5ZXYQ1W8q1DZgmIHLSoYOwpbAKX2wsBfteaahFFbVgvxTdzWLxRCr9DQiwc4tfI2f5UmHmb5C0VFr7suo6VIunwn0JYgUMH3j9CslXXRvQfCWVdaiRcxIS5SJSdp3UrVTylYvnwP3MGy95WXfuT5Tz/n7t4Xjns634dF0JsjKS8fJ7GzBn8XpkpidLueIxSd4kOa+8hnWo11ettY5SmtWxSmTOa/Me+JIf91MO/LI6b5K/w2XXLPWrkvNZjwop2y+eAOvMsnnd0qo63eZ5lp/X4n4eT05O0H28N9arUgC5rsGRH8vZWeZHfk4K/vrzmXjt/Y34Up6HLyVBynPunx4Uy6oS2fFemM+RKbSsSn8ASUnxKJb7qhDPkc+JcuBoRbE8u0qpA8tJkPttNRSNJBOg4hNQ76/EjpVvYfTwgejXtz9SUpKRlpauL5y51/TkAjqx2OnZPoDRIICxbh0++exL5PU/GAnJGdIqiLGItuksuUixFEiXna3MLQIWB4zohuv/uhi3/vN9vPXJVrz72Ta8LIY3d8kG7D+oM74zbZDu27CtEhm+ZMw6oA8qxFiSExNkuzdG9M1HojT3O0tr5L7UztTgE0UhJ43sKtwNA3tko0YUfGeJH0mi4DSQMQM7YYDsJyAdun8P9OqShe1FVXpethj9xOHdcOCwrujXLUtDo8KyWq3/wB45OGPGEEwc1U1k1oTu+enYXlyN0VLekN65+GJ9Cfp3z8ZBcm2C39jBnWW7G7LSkrGjpEa8EeebtPRKWPbU/XtiVL88FJXVqBEdNqG3nlctxkfV3UVukrJ+A3tm42Apc4yU3aNTBirF8HkfrNtUuZfCUj+qxFg1v+Srq2vU/QOkXis3CPiKkMYO6oSJIvtR/fORm5Gi/S/lAgT7y32cNmMwxg3tonLslp+m9amU8qgL44d2xsGju2Oo3CvnN2yTe6dMa8WzGtUvH8P75mHd1gocMqan3Hsn9bw2bK9U0Dhcnt0wOR4n5fB5EclC9xcFpneDuARdOa5otQDGiEHo118AQ0DCA4zdpP/tYTiAES8ehgMY/Jo3+zYiwyS2RIeIoVxw/Cj8fc7nuO/ZT5AtSksPgC2WLyUR20RJP5fW+6hJfVWhX5UWvGteOh665jB0yU3D2CFdMF28kOnje+GkqQOxVQxmhXginAqcl5WKWy46CKeL4nfLz8BBo7rj+MkDsJneyoYSqUcTLj99LM6eNUzrdMP5kzT8efnd9Vr2b38wGUcf1Ae9xBin7NdT6tAPG3ZUqAdEAKJBsb5pqUn6dfeFH23FTRdMwvFT+uPXjyzBmYcNxfXnTRSlBQ4XAJghdTzjsCECCn4sX1sk3kYTDhzRFXf8aKqU3wM9O6dj9IACDO6dh5+eNhZz31sv16sSUKSX4ciN3kKDPLfjDh6AX37vAIzuX4B+AgCHT+ij5X+0qhD5cg9/+Mk0FJX78f4XO5zWX66Vk5GKv183C2ki19cEiK84cxwuEtn3FZCkgZ8g8iPYLF6+HfsNLJD7G4o0X5IAdJLkTZH929QjvFnkdMGxIwWk0jFO5H+qeIYEJl7bL4Dx45P3U7lWVDfg1BmDBND74piD+mGTAMYZMwcriBw7uZ/Utzc+XLkDW4uqBdQiq1+7MP8TwGgQD6N4zVvYj4DRAT2MdurDcIhufQNX4BJNrRcFjTTTDaWbvt/gAiSKQj82b6U8uARRyIC2aGSGEOlpifhUjOs98S4IConi5voF4NZvKxej7Y6FH2/GGTe9jJN++SLeX7UTPz97goY41XX1uOQ7+2nrdsWf38RZv3oFZ9/yqoQ1xbj23Amq7CyfrR6BaXCvbJx2/Yu4+v63NUz53jHDtSW+5PcLcYbkPefXr4j73YALxVAYejz/9lr8dfan2tLf8si7+OGdr2NTYaW433XSEvsh0bK47LXwyzUG987BTX9/Dyde8yIWf7Yd50sZDGfI155zILZI63zyL1/AubfMxdz3N4nhDpAyqlEr4UuDoE19gBOPHLnVMQ6XvyvPGodP1hTjpOtewvm3vobv//Y1DWmY94W312DRss04+dCBqkUMgxg+TN6/u8r6lr8vwTDxKM4QQLv7yY9w+o1zRDZz8csH39GWf/TAfPz91S/wr1c+FyCox7UPvI3L/rhA63n+MSNwpID3zXI/Z970Kr5786t4Zcl6XCngM3JAnsqoUICKoysEwB/e8TpOuPoF2VeLmy6cJB6aH+exvr+Zi5SkBJwybbCCkFs3osMcJWFoLeDRQal9AUMMmnGnM34deWZLyR743MxUdZfZJ0E3/b/OE2OpEE9kW3ENUpOTtG4MJbLTU/Du8q14ftFaVFQ14DMxnsfmrkCW7O8s3gFb1eOnDMCT81cKGK3Slo+eym3/eh8F2T5140vL60RpHTE/vXA15n+wGRulRWfd7nr8Ixx++TPiCRSrYheJwi/+dCu6SujRTTycGnHvqXpx8n8j6xpw+lYSJCyiUTZIvSlDgtGjc1dipXg9qzaVYckX28Ub8ek12Gr36pKJp974Eh99WSzG1ohnF6zGwg83I1NCF6d3P0wmsk+iRpFFona4llfWaX/Csi8LcbYY719fWI54iddfF+Dp1SkTQ3rliQcpoCNGyfBq045KrNwk4YjetYCJ7C+TMghuzy5ag5OvfQlLV+yUe07UOvI8pzPVuZ/Tpw/Bgo824S8CluxD2bC9Ar/9x/sKfoeK51BS4YSJlMW/5b43F1Zj+bpirN5SJiFAIu7+zzKUSX3f+kTCS/HWenbO3PX+osjUZ/U2Oii1K2DQiBmGOGk02LkOXWUSFZO7WjunuYmfOAhuyz62EjTi1VvKVeF9qYlqmOxc47GueWnoIYZNt3KUxOh/uHQqbvr+RNxx8RT1EAgm7LfgFWnc5dV1WLOpHPlZPgWQJlEuXv9Sca1fvP04PPPrYzDn9hNw2swhWl925rGyXJGanSW8juPCCovMGJs79XfkR88jRYwoWYyKx0jM270gQ4+XCBilyz2kJouhiUIvW12ogMAOO6ecFuZlAhKT//7xDzUsWvrgGbj7kkPUkDN9yeLeVwkIp0hYtQ7bS2s0BOD9De+TL+FDZzwp4Mk+ki83l2HOO2vxm4sOxht/+g5uOGciZoztrX0QFdX1Ihfem1RU6st7Y7ULJMSjrHuJkd/1oyn41fkTcZuEbVeeMQ5Jcn+DeuZK2SoSlRPrkiHhGp8VR7iKxfOolUaCIRFBlmXyOuH3GD12rtVRqV0BwzECSyPPfHBUFk50InWRVlePha7Ni0urJr8zREnZsleK4rNvwjnGERJpOdhiBJWAZTI/O99SRUnZmtCIekhL24kg0jlDRy/YD0JvgyCjIyrS8tSIoZDoGbAPhUO6Rx3cH/c9+ykuu3sBzvv1XDy94EukpjjlktzKZ9usGivh3IOTSvHaWrec7ew374bHSCyC2+xEdXZYOS3Mwlm/h176DBeLu/+K3Es3Ca9+96PJeFqA7dD9e2r+zUXVWPr5Dm316fXsJ6FZbmYy5n24SX8TFK554B1cfd9b2p9z8H7d8K8bjsA9l09TIKNh82qGcLy/JMpUfhLMegho0JPrVpCOziLbV5dswLsSbqULQOi9Uq6S8k7Yh8N6s/OR92Dykzty0rB7jB471+qo1K6AEW2iobKz8B1x8+klfO+oERovx4kyO2bhGD7dZXbIcYThhbfWap8BR0OodBm+RCSr0TlDj2zJSBy221riF9c8Tt39oy9/Fmf/6lWccePLOO2Gl3HkFc/hP2r8AhhU7qBCNROgRKl7iMHsN7AzHnz+U9w/+xNx4cuwelsFUqUVVSMOKjrJgEK9DSE3iBiZotohZ7tZvzpPYj0MNAgi7EBlvVpTbu5ieMDRikWfbMUVf16EM+SezrrpZe2r+MnpY7QuaQKyT0g4xhGlIw/sI+FIV7wnALJpZ6XKjICws9SPJ0UOF/1uHk69/iVc9ec3tRP6pEMGOKM4ci0HgqEgUyyeED0IjmJRpmfd/IrK9HThI3/2HP709DIJOxxAZd21/rzp4G20dj8eRY46NGDQYDjURiV+8e21OP2wIfjB8aNQI4bAOQ/scyBY9JEY/zc/OFg7rf712gqJRZvUM6mpbVCXnP0RjL/pAhNYqJRbi2t03gU7Ro+Z1A+jpXWlZ5GZlqRDp8/+5mgdRmQfCs/X4TepD4GAZmsdY3Rh6WqzxR7aKwfHTx2gHXQMCdQo5I/GSS+npo6Tz5x8lrJMbhuIOPbj7CNxGJbXH9Y7Vz0nDhPny/0cO3mATlSjcUoG/qfnkzgZbIjU5e5LpmBEn1zxktiiN+G1DzbhwxU7kJWWovfJchnarNlShh+eMFrv9+V3N2h/B+nEKf1x03kHIjcjVUAlRTy9Wrwgz2GbhBEcIUpKJCg7QMjY31/XqPe4bFUhpu7XAweN7oEMuQ77YTiMSplOG9tTO3mZx33fJMrU7tvIOSf4w6NvTB0cMBzjZGfZr/+xVLyHNfjFOQdon8FvJa6+/twD8cBVM+T38egiLu/lf1yElRvLxEDoRYhCSma2ntdInvOPHo6bL5yIy04dg2cWrMKmHRUqvFv/uQTDxVDuu3IGzpw5CD8+abRORGJnYGlFnfZfsEVP9zkGRgWnV8L5BpxHce5Rw/HTU/bHpd8ZrcOzjwlg9e6ShZOmDEB+VgpWiTFmpqfgYimXZXcrSNP8nOlJY2D5/E1m2WR2CPI3OwA5Oer5N1fjohNG4XcXT8a5RwzDdXLfRdLyMy/lQ++HsjIiSHGuxGQx2HuvmIFL5LrnzBqm/TRHH9wPby7bgh1SLvtLOGz7nzdWYczQLpDoDUu+2IY0qRs7jTlh64LjRuEPl02V6w7FxQIq9/x0GvIlNFzw0WYFCXZo5mal4pKT9xfQGYXOOWnyrJYgJ5MTumbge0cMx/nHDMPD1x6mc2VYb/aPJIunZzI1ubJ/hvu4bfvoBZG57dE3p/aZh8Ehy/XrsGz5KuT0PwiJqVnSAgf0IUeSWBwVhQpG93juko34XIy0kyglOyR7dsnQnu0X3lyDGx96V2d50nVnS8wRhAuOGYm/v/I5Plq1U+cLDOiZi5feXoc//GeZztxkeLJqczk+kFZ3hIDGRPFGenXOwmtLN+qwIocZ2RIOlHw0rlfeXa+eBOvDayxdsR29u2biQMnH0Omep5ZhjrTQbH0nDO+moxIc8eB1hksLS1BbtGyrAEqm3g9HXQb0yNGh2dkSSjGEoHc0WLwDzgmZLQDJOnC0gJOZOHGrb9csNfAvBYiOmNgXj766QochCWpmUgQbtvSvLNmATuKNHDCiq9xfgRreQy98pqMkNFht5SUT5zhccOwo7bd5fP6XKjv2gazZWoEln2/HCKk7J2cN6Z0nIVItbnnkPbwpYSLvmXl5fyOl/LwsH96W/XwO70id+3XPwqTR3fVZfbiyUCfdcX4Ln+sguUfO3Zgtz46hFuW538BOCqLPv7lWwZCeGieMMcyZK8+EHdHRI2kIEhIRqK1E2bp3MGbUYPTr1/HmYbTPehiV1Xjjjfn422Mvou+MK5Ca0wONDZyGHZ0H6m5x2CKyP8PieT4z9mOwNWYMHRfnzHBkmPLyHSfhwRc/xY0Pv6vKzV53eivsgbcWneWyPBowXWKqAJWVnZ08h0QXmj34GWJINDLLR+PmtZiP++nZMC+HEnktuuP8zWnWNAgWly4eD8ujYeRkJOt1WQbDIaf+zvVqxb1n2EDDHikGu0kM7ZM1Rdq3wA7Cuy6ZjCMP7IfTb3gZG3ZWaAeuU/sWebGjlmGbjTawbHovbMlJ9BA4Y/O7M4fi1h9Oxvm/nYu3l29TQ5ZDer7JhmWSHM+HozlOGdzP+rMsyoAeAvuP+Jw4msLnxFoRgBhemtHzHll2ltw3iXk5P4My5XA4y+W12PFKIohFk3Q9jKRU1JZtwfr5d+D7ZxyDadNmIDPTWw8jJsmMgIbBmZP54gaT8zJTVUlpbI5SOy6u5SGxZeWMTs5u5LRrN1gwZQtJF1rLE6ah2jlkDmdyLkgLWDhlEwwsH4cp2ZfBMrV+ci0e53mZUj/nnFStJ+vA87UTVoyP51r9CSQEK+5j5y4N6MzDhuC53xyjYcGEwV1w0XEjZd8wvPHRJqyX0ErBwhWSkFgWjZP9FXrvvDe5PmVBosH3E1A9U8DiZgmlOHP1nSBYsA4EXpZhsmEZZN4bh395jMz7pTGbDHgfBFB6RPacmI/1YH0snz0T5iczD0erWEcrl/VgGWTu8+ib07cCMEypSFQbKhKNzdh0KXROUOGolFRc9/lUTJKdyzS8TPkXOkbmb+63ffJ/KL87n5HtI7nz2z7Wgds8xuq4z3XvI0DRS/ijhFCcUn3D9w/EI788TGdMPrdoNe5+clnQC5I8TnWUrBySXctYy6b3I8Bw4/mT8MefHoqFyzbht/9aEhoSZZ+I3SNrtotsWAaPfsU1SKH9wX2ajxcWsnx2j0bc55ZLaB/zuvZ59M3oWxGS7Cmx7mzpCnJ8qPYHUFlTHzSs2CIDPoZDnFVZIF4HPRK685xVyv0MWfbUoEw+nXLTNFxgx2qdhA/0Omi030bj9EKSbymJvuuDZEu1aWeVzmC08CLWyBSSoQ5DE94Pp45vKaxWw1YD32OwaJHPxu2VWL+9Qoebv81g8W2iNgcMKpTxvkislrXMjL+tHyFWDcGAjqBH74L9G0wZruyNge8iHylH3zeRsj2w2JUoC+OORFEFDLfQjKlsxvsqsZ5uCv8dS/R1dd/b+2otXyzLKBrk1nPKJpxjlaIKGG6htSY8jzzqqOTW89bsIFapzT0MN3vkUUel1vTdzbFKUQcMS8nx8fGhbTvmkUcdkdx67tZ7OxarFPWQRAUVHJM3jtVpsR55tLvk1vMQ29wULyRpnUxQJKIsmULkjL2E+JapwcENJ/XIo1ikoP6aPlO/Vc9F3033SW6biEWKGmCEgwW3KbzEhMTQCzjcFxKkph5oeBSDJCDh6G+LrlO/Vc9F383T6AigETXAMKRVAQozdbyLBBFkos50a2qoQ6MwccJZL8ILUzyKPdLlAUR/qceBhlqdtey8mZoYejPVbQeaJ0Y96qgBhqGoIau5Z0kUZGISMrOykIwaNNVXIS6BC+/y7cLYFaRH306ivgYhQPQ4Ec111fDF1yIrO1v1PFG8DKehdMDCbRexSFEDDJIbMCwU4Tx67hs8ZBhGjx6Fym2fSSVa1mFUBPZAw6NYIIKF6KtNr6cxVW5djpGjRql+cx/13UITN2DEKrUZYDihSJK6anTTunYuwPTpM+BfvxClmz5Cki9bzuUbisGFFDyKKWJLy2f9rfIQ5X510WGxoqS0bNHj9+HfsBDTp01Hl075qucGGKGwRPLEMmBE7W1VEpUnEAgoNzQ0oK6uFtXVfHO1CuVlZfDX+vHI3/6GZ198DTnDjkOXkUdLHq6BKZn3caFGwjBiWXFIbhk4Hz9uVKOIOGiwvPhEMcwWee0TspN6sWpxcQnYsfwllH3xPE485jB87/vfhy/Vh2x9QzUD6el8QzXV8TQERMix+uyjChgkggVRmIBRX1eHWmEu01dZWYma6mpU11TjxRdfxH+efBKVfhFiRg8k+LIgbRX7kGLeqDo6qfKI1eT0GIO8QZPRWF8jhu0MmUeO4lCyagEqdqzQjsP2JgIitZL/N/orgKotyPQ145RTT8UxxxyD9LR0pKWnIzMzE2lpaUjl6+xBT4OASsCIVYo6YBAsyAQOro9hoOH3+8XbqIZfP85cj+LiEsyd+ypWrlyp+7gWKB+MunwCGtZq6cNy/f4mFA5G4WW6r8l6kKxeZG5zPxepsXP4LdV48VF1JXC5Z+63OSfuji+mbrZ9JEvdZHVleZG6/90ht4z0/oJs67WSCf6B1O4YcNzvUF9ZqJ1/ESVpwVf/5wdI9yWoEVI+NDqm5urraS4ZRYJMzlauOyXz2j4BhCFDhuDww2chPz8PyUnJui9dAINgwY8xEywsFGddW3u+sUJtAhgUuikXQaOBC+sI26LAtQIeXGhHzxO3lt4IORBwDNLKiJQiGFl5phhku1aT1JXbFlIF+A3Y4IJA9XVOyvrTQ+J2nWzzPCrR9h07NOTq3LkLcnNzdD9bl1SfTxeDTRX3VFPhlFSn5WGsy44xKhXLULdVFIt1o4KZkpJYP9tuC+L1+OwCGlYK2EsoybCyuqoalcIfvL8En2/yo+9Rt6DJX4rmiC+EFI+1z16KMfsNwQETDoBP5JiZlalGSVlSdglBuUVLLiZ/M/hEaRD43MhsEHiM9eAzVq+Cz5YjggQMYdbN6ucBxteQGaIpnQMEAQWN+qACqhHSGMXouE3j5Dk8n0bbUg4fHLd11x5TeF6Waam7jiEmULCuUk96QQQI1q/WX6vbNBx6Sqw361lUVIy1a9foymJj998fH3z0ETp16oQBAwYiOztLFSYlCBSMcan4BAwqGpmtk7VEZgBuRTMmWUoKv69IkZVrcqEceK/qHQpQVpRXKGC8995iLF9fhX5H/xqB6mKx7wiHJOJhrHn6x5gwbgQmHjhRDTJL5EnX35FhaghoHRlFTh5WFlOTfwtoCMALyOvzkzrw2bU8SwGT4LNUUGnlGcYiRR0wSGaMNCp3q02DbAjQm3CM0sDEDNbOd5dBYTPda3LlDa8XvRte1+pXJ56E1ivoDREgHI/I8YwcoKsToCjC8uXLsXXrVhx39NH4wfnno3/fvli+YgUeeOghzF+wAD169MCoUaOQwbjWl6bKpS2RLzUY5zpAYrFucrLTQWbKxjDHrXS7tFJRUsCQrIUpDwNN7biWMKSsvAwVFVVYtGgBPlhZHHXAmDxpLA6ddqjKKyc7R2XJDkWVm4At5UNZfGMdcZGVxdR+G2DwemR7Tg7LdqI8M4JJkO185rVyYpXaBDBI9gDVMINgYMZJ959eBfe5wxAy8xnbw9sbcud1l2nXMaCi2619LWIcjvdTry0qwya2qnTFFUwENLZu34bPP/sMGzZswLgxY3DNFVdg9IgR2sKwDIIC83748ce48w9/wPvicfTr3x/D5ZyuEq6kpvlU4ehaW2vphC27ehxUvhBwBBXPrYC8D/d2pMnkw3syOVRUCGCUlqK0vByvz5uHxcu3RRUw1j5zCaYfMhEzZs5ARnoGcvPykMWwhN/8EJmZZ0a5RFoG4TImGwiQGZ5oyrkWQQCxZ2WplRPr1GaAQbIH6QYD297Fo5D9dky2Qg+LqXt7T8idxymnBbwMuMzLodtdW+eEHTU1YiACEpVVlaFz1qxZgy+++AKrVq7E/iNH4qc//jGmTJqknoiWJWxL4CUGFYjXX/jOO7j3wQfxwbJlChqDBw/GwIEDQ61UVmaW9q77gl5HSrLTu07wMMBwK6MUqeXujTz2hDgxSUFUmABI76KisgKlJaUokfBr7iuv4K2PN0cVMNY9eylmTpuEI444Uj0LdjBSXtzW/gKRkQMYkTNKk6tbxrotf4789QHothsc7JhtW1kdgdoUMEhuxea2goIrbY2/CdmDtnJC5cr1FDA0DGkKGQRBQsMPf42O4lRWVmmrynPXrF6NJUuX4pPln2LqgQfizFNOwXGzZqFGjtMbMeUg8RpuJWF+H2NtaQnnvPYaHn/mabz17nsYMWIkxo4dq+BBImBwdWntZecK00FjUI9DW1Fxg8Ug2ZKZUhrxt93v7pL7fHc+9z7KyvG4HMCoqKhAuYQjJQQM8TJemTMHby7bFHUPY9bMyTjyyKP0tYKCgnzxMLJDQ5f8wpi18EYmf0tJeyofI8vH1F2um91AwdTIvR3r1OaA4SZ7AAYWRqqkwd92jvv43pD7OmQFi5B3wc5XJwShQXB+SFV1lX4agV7F5s2b8Oorr+LTTwUoJk3EiUcdhcOnTUOytGhl4pKzZflfSsGj9DgYfuVkZ6NeQrB5Cxfh6ZdexMK3F2PYsGE48qgj0bt3H20pGZvT9XY8Dmd0hf0aFh+7WzMtPwJK6ZaxyYlMGdnIFkMyN2AUl5QoYCz6aGObAMZRRx0dAozs7BwBjSyVFb0xdjKasbpZi5DUfX97SpbfynRvG3Gb17djHZHaFTDCyQT9TR5sa2RlutnAwjo1aQzsyCRzrkiNxOnbtu/A7OeexVtvvY39Ro7Axeeeiwn77YdsadUIFCyHxs10t0nqws5e1onKXlVdgw8+/RgP/fsxLH7/A4wbNw6nnX46unTpjMyMTDUCtqD0ODhMx5eZGJ447neL+2sKuqfyCz+f28YGsKH+C+3wrBawKFfA4KgQAePVl19uEw/j8BkHq4fBF7s6dSpQwMiWbQJGsgAGvbCWcO2/ASP8XiNBVqZdp6NTiz+7D1D4w40UW5lfZWAkGgVdfnJRcRGefuYZ/Oxnl2PLhg245ze/xl9vvRVTx4/nzC0UFxUxxlAOiCE1CujsNsv5lre0uBjN4upPHjsOf7rpJjxw++9QV1WJyy//KR5//HGdz0EDoHdBYBMzDtWdbPfT2j3tLoefH15WCDiEmVJOOrol9WEHMX9zf7SJ9WFfCq9H1usHt9lRLhUNgYH7XtzycR+LFFuZ3xbapwCjLYhKZUyil0GFys3NxZbNm/H0U0/hhl9eh61r1+Bvd96BhU8+gaOnTkWaAAnnVzSI90HjobHQcPaWmd/KKS0tRYp4DIcfdBBeeuQRPHHfvagtLsGN112LJ594AqtXf6n1Y9+FtfrhHAlyl2XbvJ4CRXBujNtIzUNrC8CwurAelF99vQNYvL55i2Srr9Wf7FHkKOGX1113Y3D7W0GmQEypYGwdCAR/+9vDuPHGGzDvtbkYNXQojjv8MFRVVGLxhx9KyPCpdmx2y89XIxeNjBizDikSYnz8xRd4ddEivP/JJ3rdQf37o1LCo0cfewzPP/88mhqb0H/AAA1jWGeGJKRwj+CbEMtwG5oZHw2TfTxOZ7ANLwtXVmq6bu1abC2uQc6gaWhq8EtBEW6HpLySz+egd89u6N27t4Zk6g2mcJGa4CxK9utQFi55UDaaPQKy8cihb52HQTKDcCvVCjFY9hMcOGkSKsUw/vSPf+KOhx/Gn/75T9xyzz2484EHNBxpltatKYLcINfKkNj7Pl7nT3/CPZLeJV7G74U3bNuO8RMm6KSvjz9eFlJ8plb/SBqDlWnyIVhYy22rpBGo3FPYExKd/gqeLzXT7YhTsF58VtZH4a6H03fhdDaGexeRlI9H8oT3pU7PtiBTKjMEdWnFcKuqq7Fz505pMStDk5JKSop1WPXNt95EdXExnrj7bnXHI0m8frfOnfGdSy5BY2oqphw8GZnZWcjLzdPXozk5KSMjEwUFBfpBXxqMGkvQYM2QIkFuQ3OHHxxinvvqXGzeslmvVyUyYecnR5I4R2XFihXYUAz0P/bWqHV68uWzIYP6YPjw4TrUrHNW0tKQkZmh9R04cBCmTp0CfuzY5EO5GHsUGfrWAYa1QEzJNAiOinCKem1tnQ4ZVpSX6/yCosJCnaD02tzXULZjO/59++1RA4zTL78c8WIE02dMR25OLvIFIHIFIBzQyNLZnzrzU1pTa2HdxhCJltTAwmTDYWaW++WXX2oH8Dtvv63npaZlIzE9H1yPtSlQz4sjtfNo9Jz6QzT6yyMPGFLeptd/j0DlRvU24pNSBSyT0FBdiDp/ldaRizHdeddd6NWrl2Yx0OAxDzAiR99KD8NtFOZlcHEfzurUeQZBwOBoCAGDczCKt23FY7dJCxppwJDyugo4nHHlVUjMzsGM6dOQl18gnK+AwSFEZ3KST1xv5wUnGoC55jSISIAFyS0bykXBlKNAklaKXO7/y1/w8stzsGZbDTrvdzKye+2HxIzOaKytQnNjveRz+oRYRiTqZOVoKqChQJGUhobyzSjftAw7lj2NIX3zccwxx+L8Cy5AZkaGYEuCyoj9HAaoHmBEjr51kjQDI5syqZsv8bB1pjmvJDtvG+pEKTmuACPA0lo/RERYjIJ10WsGr2+Kr/MupH4GEmT3fUSK3GUa81oCI9pa/+SnP8Ff/nI/zjvjKKRueR6r5/wK25Y8isa6SsSJMYtpi3E3aR4SDX1PyM63lNO8WR7rkZCcjoaK7dj67t/w5YvXI69iEf7ve9/BA399ED++5MdaP+azMM3NHkWO9jnAcCuNbZPC9+8tm2dhFFIsNURnURQFEFFAptZSSebQkGjEWYCI5dv17Pr2IpMChNZvV0N030v4fe4pWxnhZVI2fFOW1y4rK9eZpxdeeBGuu+FXOOukaYjfOh8b5v8OOz96DnGJnPruk3wted1lfx25z7dUthQoGhvqsWXxw3Kd25FevgQXnnMSrr3uRlx40UXa4cl6qYwknxHvQcuIAJMsJX3V/m8DtXtIEi5498Mg2W+38u0NhSuvbZuBWFjCV7e5glRZWanOZKysqMBLL72ITatX41833qAvlkWSNCSR8OOs669HZrfuOOKII5CTm7fL1Gd27ul7KEEw4b24meS+vz0lyxsuk5aOYb5nQ/nUOe/XiEx4vKa2FmvXrsV7i9/BCy+8gIaEbOQOORq5g6YI2LHFl3IC9RpOkKx8qzOJ+2jsOlwtu/V3ghN21furUPjZS6je+A4yUxpx4oknYszY8ejXt48Aq/MauS4XIPKxqfOJXNo/CLIGIpba9feGLD9Td/3dv8PTjkjtAhgUfDhTAW27tXP4EOzY3pDld5dl5fHafJ+EnZ6cZ2CAwWUDOdfAAOOf114bNcA456abkNmzJ2bNmqWAkZeXq4ARWheSK3OJMbjnGdh9uLf3htx5TS4KGnKvXHLQ1ishYHAuBt/m5VwMgiv7ODgXY8eObVi4YCGWLHkPlf54dJ34PWR0GYak9DzxEPxobmz4L+AgOdcWsGDoIR5KggBNfVUhStcsRsnyZ5GT7cO0Qw/FgRMnoSC/AOkZ6QoIzgt6GfqeDUM3ehoaugVfzjOPzGTzTeRDsvzu8sh2jBx+PeOORG0OGKaMIaUMMlsy7mMqG6Hjmkdj410N3bZ3l9zn27alnHLM69rLZxwq5OIwJQQM2Z4zZw42r1mNf1x9ddQA49xbbkFGj544/PDDkJOTi1wCRla2tqBmFE545Cihu/5MSXZ/e0rh5Tncsn4pOz/JBA19q5fAId6YvqhX49c1WHVBITm2c8cOLFi4QEdWKhoy0Gn0seI5jURSZmcEOIIi5Tneh1PX5qYAEtj/IWBRW7IBlZuXYefHz6Bbp0x9k/fgyQeLl5WtHha9CGe9THpcwRfyBChMNvS+jB3jbTFmvVbwmrtDbpnssh2ca2LgIP+FvD67rjH3hc7rINRmgEGBG1MRDSSURRk1bWLPfAtw8BzLQ6LgDUS4bfu/CVmZvJ6+YBWcyVheXqFzMbgOBodVOVX871deGR3AyMvDubfdhnQJSaZPn6aeRU5urjMHQ1pRW/6NRhEt5XPL02ROpmxMPgocQdDgMLTjcQjIClgoePidlOdu3LgJHy/7SIGjPqUnMnsfiPxhMwUskhCoc4ZC2YWW5MsSoNiI0tWLULb2TRRkxmPQ4EEYO2Yc8gvy9DxbYMjWROV6IZSFvqFKr4Ic7HOigTIlMe/eysstD5Zp21amXYfbDI9sRTT30oruc4xjndoEMMKVz1osKhbjY4IEWy+ys895P4HbltceWDSIZRO0eF22nLYEXamEJYzZF7yxAIWbNuJvl18eFcDoIh7G+bffjqSCTjr5iK9v2xJ0HE7VljTJmWVJVzvaZLJmv4LJPgQarndKrF9D3/aldxZcwrAmGKowlNm8dQvWiXfGBYfisgcgveeB6DzyCNE8ufeqEuz85HnUbP8YmUm1uvp2334D0LVzJzU23ncavQkBCl0bhGGHAKcDns6olgKFhCBmoGQ1zKBxRtJI3YZv17M6kLnNerEfhcdtv7tekaxPe1DUAcMUjqwKFzRMKhmNhYpG5WJK1hZMQMTOdecnU+BMI0FWFpmL6LBerAO9DM5i5CQuv7jcb7/zNiq2b8dDl10WHcAQb+KCu++GxCI4cMIBSM/M0M5Otqrsv7B1Phmfm9JFSgbh5JaJETdtH5+JgYeBrIYp8szsGdaJ16HAIR4Hzxcdk/CuGOvES1u7dh0ScgciPikLDWVr4UuoxdChQ9FFvCuuE2JA0LJkobOAEEGCoOkYpRhkmDG2GGTLPURCVuFlkXktAgJZgVzqwzoaO3V1PB/nuXUc0GgTwAgpmLC2PAQIYbqv+kJTULl4nOS8hegoI/OyDGMKm2kkyMoi67qiotxUeGspKysqtY5L31+K6qIiPHDxxVEDjP+75x4ExPUeO26cGguX0XdGRxwPQ5VOFNQULlIy+Cpyy8a9bV5HyOOQ+tPrCAEHOfiimj5bkaXTEIhs+cwl3Pty9WqUlJSgX79+6NGjp+M5CBia4dmK6k4fhXkUjuHZvBhr4clSwZBc3HWPBFlZVj6Z13SAS0BLUhLrQy+Iw86sN7m1zwwYaMQqRR0wqFhkKpYqFVtwYW2BhOn619XX6ZuGG9ZvwMZNm3Q/FY8KyV76kLIGH1yklYHkBjXn7Ux2gNZqPdavX4cmUf5/XXopGoMGEykiYHTLy8M54mGUSbm9e/cJKpzTWoXH56RIymB3yH09pu5tk5s+ZwOQ4LMm6HOb3gdTeiQ8zwyG+c3gFQx4rwnOS26Oa+/s03sP3r+xlWEyYVncF2nZWHlWNtn6K1hPgnqf3r3Ru09v1Q2u/m4d1Tq6RY+DgBh8jlb/WKWoA4YZobVAbHUUKKqqdDyfyrR18xa8OtdZAo8djanyMAgg9qDaiygYXr1R6jGqTx9cceSRqhSRJHoseRkZuOvll/HOqlVIpILKfru2R/semV5SF2rl+bGDmp+QmHX4LHTv2UPDFPZD8buqzpB4S6e1eRqxSlEFDArWwIJs72twngO/DEaw+Pjjj/G3hx9GtgDEcfvth04Sx6eLgFWokl+eTLC0tqHWWifu4yvoGfLA9Xgk6yTlUfmqRT6V4tVoyWHltydofh21JqtoEuVg12xXmQR1gLpdJQ1gkejy86LHFbL/++edh9GjRyto8MVB93tAThjjgMa++kz/F0UdMMw91S9mCdOzIFhw6JIhyO23/w4TunXD9w45BNlilDw30q34NyYqh9SJ7FbaiJGUSSeVnyRQZfQoZoieMEGgXMD+bwsX4oPt23HFFVdqiMIhcfuCO+eRcHjcQhMPMFohxqsWihAwuGoVRx64zgTj2QceeACFK1fi+hNOQALdOzmPxkNRRsUwvwkF6xUNYrm8033qfj36WjL91CcmqU9CjgYBj5ueeQZdhg3DRRddpCM5eXn8HEIW0nzOJx0tNInVfoyoAoaFI+xArK3lq+PVuhxedXUVPlu+XNcv+OEBB+DQIUNQIp4HP/5DQXqG41GsEIFDO3xFZ9kX9caKFbh/6VLxMq7AsOHDdfo6Fz7iVPbUVIYmTgdorPZjRA0waPRuwODwJL2L0pISHRWZP28+/s11NI85Br1E0LXicVhHp0cexRIRNBiupopHsVEavhteeAFnn3+BLobE2ajOZx2zdOTEDRixGJZEzS8yYRAAbLiNAMKUS/NztCRbXLQ0ERzXyZSDut4Etz32OJaYehsn+svtdNHnHAEGNpDUc7fe0w6sQYxFsCBFDTAomHDWMfumRtQHhch99r0ODyw8jmUOfXdGWBRb9Vv1XPSdeh9uC+RYpKiGJERVJxzhd0pr9ItZRUWFOt163rx5eGP2c7hm+nTkiotWLwJmH4ZHHsUisQ8jWbyLUgGM37z+OqYdfwJmzpwJX5oPBQWdQl9o4yLFOiEvRkdK2gwwrMOzuLgI1bI9b/48LJw9G7845BAPMDyKeXIDxm8XLsQhxx+PmTNm6vod+fnOiu/s+PQA4yuIgNHS4ekAhnkYBhiLBDCumjwZ+SI8DzA8imUywCiWRvJ3b72FqS7AMA/DDRjs+PQAw0UEDJ1/4QpJ6GEQMAgeb7zxOhY8+yyunDQJefHxqJfzPcDwKFZJAUP0t6SpCbcvXoxDTzwR06ZNV5AgYNDDcIcknI8Ri4AR1dkjFIgxAcQY1gnEVBBZl4Jj6rHHscyix9oJGtTvOJfO62+XPcQqtZuHMV9CkgXPPIPLx45Fnrhy9SJkz8PwKFZJPQzxlEsENO768EMcetJJ+nGlzMwMz8PYG3Ijrb3iTCFz+KlVtPbY4xhk1WfRawMDt953BGqXCe0UpQqQrltDFD8O5LHHbczUZwu55T9H4TsQtVlIYsOqGpJUVuH1N17H/CefxGXDhnkhiUcxT+6Q5A9ffIEZp56K6ez0dIUk7lGSWA1J2hUw5j3xBC4ZPBj5HCXxACPiFCdAzFZOPxLkUVTJAKNYZP2nVasw87TTOiRgtEtIYqRv+bXi1nUIFte0WVobKgUNdpfvsvKY7NNjjHmjEZZJmTU7dqC2tNQZiYrGNTxunTswQLerhzH30Ufxo759O6SHQTBolPuvlXtOzshAUlqaysSOBWprUVdRgZTsbCSmpkbcC4iLi0e/ww9Dzc6d2Lp0KeKTkjpkTL2vkNvD+PP69Tj8u9/1PIxIE9W3VYSOdRavob66GlkChtN+8xt0nzQJDX5/6Di3O48ejWm//S3yhw5FXVVV5OeiNDdixu9+h1HnnIO6ykpvrksbckeG5XYFDPYmq5DpLncgZpjRUFODjK5dMeaCCxQcFDCCx7mdO3Agxpx/PnL69UNAwEXDFpEFPQ/mJXPbLR96LNzPbTuP++ycgJTbIGUx5e+qbdtQW1LiHLNzZZvMtyp5nl4juE/3B6/RWrm6XzxGd50CtXWh6+l5wvr2Mc8R1np+Rd4OyXJ/1OuOSu3eh6HK1QGZ/QY0En95Oeol9Aj1I9gxMSJ6FvREqGQ0pgb5zWXd0vLy4BOOT0zQfXpcDJgObKqEMLot7m9qVrbuaxSjpGEytEnv1AnJ6elSbo0uzd8sbi9d39SsLFVkAw3WgWES8zQFnHq5r8HwRQFFmOelFRTofgIb6251SkxO0uvxPJaVIuEXy+b91Itnkyiud5rUyZeb6+R13Y/JoyOx6rMHGNEhN2Aw7WhMA4nnW4kcrWC86mYxeB5Tz0KMhx7AwGOPxSmzZ+PUl17CacInPfUUeh9yiBpjXVkZuh54AC785GPdd9KTT+Dcd95Gd9lXU1yM/cRb+d7ixThtzhycIMcGHXO0gormG7M/Lvr0U3SbMEE7QWnwGT164OxFi3Dq87OR6PPpYi/VO3ZgyIkn4v+WL4dPjJxGf8Dll+O0V17BKS+8gNNefhlH3P8XZPXurWBYJ2A47rJLcea8eeh58GSc98EHOFGunZyVqSA56txzNQ/v5fRXX8Vx//wH8ocN074bemGtySyW2QOMNiBOdOmQLAbIlpate01hIUp37kTppk0Oy3bN9u16jFQvgNDj4INx7IMPonzjRrwkYcycCy8Uo6vE0Q88gPTOndWLaBL3v76qGhOvuAI7Pv4Yr//iF9j+wYcYdNRRmHbzzVgthv30qafi7Zt/jeGnnKohUXNzE4q/+AJVO3eg69ixej0abN6AAUiQ1t+XXyDld0FAWn4CWLdx47Dj009QsXYtxl96KQ668kp88fjjeP6cc7DgmmvQY/wEzLjtNvUSaPR1peXqDY394Q+x7K9/xeJbb4O/sAhDTzkFh91+OzYsWIBnTjsNL//gB0gv6IyjH3pIPY5GuWfKp1XZxTh3ZGrfTk+2rqI0bpeuIzFDAKb7f//7OFkM5aS//12Z2xPEGLUjUo5TDrVFRXjxvPPw7He+gxXSGn8ixj//qqv4DT70nDwZDcFOS3oN1QI4cy68CB8LmOxcvRojzjxTgKQKr4rR7li6FMv/8ySW/vEPaBCQYThRsmUrNi56E32nT0eSeBOsV59p07BWrrNTPI9eU6aox0CA6XHQQVj94kvwi2ey86OP8NRJJ2GeANNqMfz3/vUvLBYQKBgxAnmDBml/RbOEMwkpKdi4cAHm/OxnCi70aiZfdx3WiwfzvADflrfewhfPP4+nv3My8gWoBh9/PKrFO2HY45ZXh2CCoOdhRIc4zBju1nUYFqXRZQglzejWzTGy4cOVuZ0pIQGJSkY/Y8Pbb2PLkiWY8fvf47zXX8fFYmTH/e1vSEpNRYIwv+hKgGF4s0ZcfPZ16HCt/E6X8kvXrdMQgsd9AhJbl76vnkRCUjJqpQ6bpXxel/0MiXK82/hxAhhzsUX29xJACkj5md17aL02ybUDkmeFhEfsazjlySdx/sKFWqcJP/6x1oNhDNvSOKkHwWqdhCVp4rEkyP7UnBxkSp1Yn0FHHIHhAmjDJdTpvP/+kgPoNHSo3g8/NdGq7GKcbfi8I1L7AoZwRx3uUwOXNF6M6L277sIj0nL/Q8IOMrcX3XST820KCUv8cu6o734X54l30HnUKKyWuP/jhx/Gimee0b4FBdZgeQxj+GFormbGDlPOXWFoQXDQr6mLkbIDlB2OWpfGALigPUGALXp2/35Izc1FungTOz5ehu0S2nBol6BFg66WUGnHsmXyCzhMwOs7zz6rMfkX//kPPhLPaKMADDtT9Tupco56iWIkDLsILuwfSUxPl30B9Jw4EUf9+c+YdsstOPzOO3GohE2cl8IQjNcjoJi8OgyzkVDpdUzaNwCjIzLvT1IaBg2KLTYNisxt7lPifknG/d//obaiHP+cOlXd/iUCGAQOHidIUFYsT7NIGVq+cB2VVAwvJTNTjVd7ReR8ehI0bCpxouzaKiBQ9Pnn6D/rCPSUEKSupBQ7v/gCW8WrSZSQoseECeg7cwY2vvkmCrduRXpWFg645BJ89sTjePz00/H+PfdgqXg82yVMYV+Hhlusg6QEIras+lu2/QJoCSlJ+ETCrzskBPmLANK9AwfivsGD8SsBqzkSjnGxGR0pccusg7AHGFEiKpi2nKJk3Na0I3DQmFR55Ley/HYzDY4pwxYaOcOL4pUrUUWlk9+1wiPFlU8WIOBoREAMjOWyLB1dkuPN4qHQO+F8i5z+/TVfneQvFe5+wAE6DBoQMOF1qgU4Nr/3roQfB2Pg0Udj2wcfoFJa+uKNG1G2Zg2Gn3oKCoYNxQYBjHo5P0muS+DZuXy5/ia8UVn2P/dcZ26FcCOBzOoUrLdei9/O3bgJnSQEIvkFGBgWBeS8MRKa5PbsqSus8dxW5ReLHLwX1WfedAeldgUMEpWmwzENKbgt1uQYuh0zln0EDXoPBIfiVavQa9JBGD5rFvIHDcIJt92GTAkbOG+BIxfJLIfgIqmBDX8nSfrZ44/r/Idj//pXdBs9GmOOPx7jLr5Yp4NzJIIKnCy89pVXkT9kCHpLWLRegIGhCsvZuHixdpzGxydg08KFSJF95Vu26LTyEaechr5jx6KPhBcni8dQsWmTzvXoNHx4aEUp9WrsHglskr5xzTXoO20ajpNwrIsAR48xY3CieE3H//OfSJK6qoG55NSRuCNTu4ckHZkJBuxf0M8/hh3j6AePEThS5efrV1+tQ5AnPfooTps9G2mdO+N5MfrPnngCEySdevnlOmuTox5s+bWcIGAsl/PnXXWVeAmn4qxXX8WMG2/EkjvvROXmzUjNy1Pj5Iee177xBuLj4pHRtQs2vD5fAYO0Ua6b1b0HKjZswBYBrmQJOdhSPkcPJzsL5zz/PI667z71Np4TD6NQ0qPuvRf9x49X74edqCStkwAIlerTJ5/EixdcgIHHHIOzOBfj6aeRL8DxxHHHYceKFRomqXdi+ToYd1Rq15fPnn3wQZwjitxZFKcuqGgdhSjUBGnhU7KynKnR4sJrSyzEY+w3YLjBCU7s2FQvQACEHZIc6ajaulVHLlK4LydHOxk5XMk5D+zgZB4Sy7QHyH4MvV6NyLu0FOmcmSly5fk8j9dIk7I4NOsX8LF87OvQa8izquV8DNnHYzw/VbwBlsu+kIrCQj2WIgCRIufrm7Dy7BhOcZuelPseCTq+9HRnhqjUw19cjDqptwGVndsRiLJKESDfKbL9hwD5iQKW3stnHu0W0VioCuwIrBIjqXeBBYnbHM2o5GiHGBB/J4jyNMh2+Y4dKBOwYBmJtk9Cg2q+EyIGWeHKQ7ZrkfyVlSiVUKJajJd5a6T19wfBgufxYVcL6FQFwcLKYGhTKfV0gwX307C5r2zbNgUL/ubxOgEk1pGjHbwP3mM4WHCbXkStgGWpnMsyeC+sl53nUeyRBxhRIBqE2+jMCI24zX00KDtXmuDQvtB+1z6Ww3275BGybaY8x85leUzJdpyp7bPfdoz5rJ52jMRzecyuS7I6MSW7yyN9VX6ey3rZNTyKPdJn6FHkKdwg3L+/7pibvs6ovq68cLLj4efxd2v73OmekDvP1+Xfm7I92jfIAwyPPPJot6ldAIOdPbHY4eORR7tLHVXH2wQwTHjGjM3JHnkU65SUk4X04UOQOXMG4k48HcmnXoBDz/wRMrsNQUlNALV+P+r9XAOkvkMASFQBIxwgjG2/Rx7FJInuJqT54BsxHA0TZ2Dj2OPw0YBj8HaPI7G06+HY1uUwfOAfjFc35OC1dal4a00dVmwoQklRIRoDsf36e1QBIxwgwtkjj2KNOEcmMSsLiSNHo+KAWVg18ngs7nI4FiaOx+KGQXi/qic+KO+Gdwo7Yf6WfLy4Ogezv0jBK5/XYsmqImzetl29Dp3pG4PUJh5GOHvkUUyS6G58RjqShg1D/bFnY1HnWXi5ciiWleSjNJCO5OQU+FKTkJmaiOy0JGT4UlBb58OnRXl4bk0+Hl0GvLF0NbZv3466ulodYo41inofhhsguM1p0gmC0vpqt0cexRDFJychceBg1B13Dp4oHo5lZflAYjJ65sWhW3YikpISkZeZguPH5ePOM/vgwfP74prTumHcwEQE4hLxQWEO/r6yC159dwW2btupSxTEGkXdw9BU/ggQu3Bcy/sVHnkUC5QyaBCqxxyChdWDsLU+C+niSeSlJyLNl4zUlGTUNSehV74PU4Zk4ohR2Zg8OAunTuyEUb3SkJcRr4sNba1Nxysb87B0xRYU7tweLDl2KGqAEQILSc2zINO7SEgUllSP2bnB8z3yaF+kxMwM1PYagk1dxuKL6nwFiCwJO9IFLPhuSEpqKrLSfWiKT0ZhdRw2FAewqbQe6wrrUBOIl1AlWUAjGb6UJKyoysO76xuwZlsF6mq5QEHsUNQAw93ZuQtYxCcgOUlcO0FbhQg5rl4GO0iZeuTRPkhJ3bqirNMgbEjoDX+zD7n0LAQE+BIZ+y5SBEBysnwob0jGW+sCePyDajz7URX+vaQCG8rikJwieSRcyZF8tfDhi7I0rNpRh/Ky0uAVYoOiHpIouwAjScAiiW9gCiJXC0jUEliCYMHl5jzQ8GhfpPg+/VCe1xfFjZnISBEASGKfhehyEgEjSd8qTk9NUk9iR3Ui3lnfjAWrG7FkU7wCjC9VQCU5UfMxf0ljFtaLF7KjsCR4hdigqIckLd5FfAgs6GV0F8TO79EDpQIWiXKcngZXLPK+4O7Rvkj+7G6oSuuKQFwqMlNFl8VDppcM0eUUAYGhXRJw2v7JuHJaKu44IQP3npaDXx2bg8FdpXEUoIiLTxQbEJCRPFmSvzEuBYU18dhZGVsdn23iYShgiGAJGIz3uG/osGEYP3483m9qQq0c50IwXIGpUUCD4EFPw2OP9xWuS81BfUo24hPFk0hJQFpKogBBgnJDcxw2lgG5afEY0S0R+/VIRI/sOPjrG7G9UrznuAT45HyfnMt8aZKf5VQHElFRJ4XHELUdYCgiCxoLYKT6fIq2Rx11NKq7dsPTDQ06ISZLzuV6CezPsLwee7wvcHNiChKSU6TRo7cQj4YmAYRAHCrr41BUE4cNZfEKHtmpcchMASpqmyQkacDmykSU18Whuh6okfOZj0shshx6JwH5HUuU8MvrrrsxuB1xUkGzfyLIBAKGHSQuppKbm4vBgwfhtU8/xbLycg1PfHKMa0ryLM6FM4T32OP2ZIw+AEX5Q7GjMRe1DU2obhAQaIhHeW28gEE8sn0SkoxJEc8iHk1NzfhocwPuf6cehbVJ+rtWvI2a+ibxOppR39gk3nQCuqX6MbxzM4b27cIrxARFbYk+I66KTdbvaAhIcIab31+LmpoaVAhIcKWmjevX49V5r+GVl19Go+zjgrXEXYKL16Ph0b5AU04+F2UDTsEnjcPF+Jt0agBD7Nr6RAGLRBy3fwp+c3SahCUcUq3HEx/U4rqX69EpV5rA5gYExItuENZvxzQG4EtKwLTuxTh7/2bMOnh08Cr7PkUdMHTFbDF8AoaCRl0d6uq5zmctamtrUVVZqYBSXV2FktIy1Mk+AguF28Cvigfzh7wUF4X/9sijSBG9YzfFJfqwqGIQFpQMRF1zioCEhM8SVlT74zEoPwnXHJOGo0ekIC0pDnO/8OO+BX68uCwOXbtz+kBAgULBQrjc34SkuHqcPKAU/zcpEQeMGRW8yr5PUQcMM3TzNBQIBBDqG+ht1Cto+PkKsACJAorsJ2Bwu5GumwCGGzQ88qg9iG+ZLi7Mx6vbemF9TSdkp4nxNycgOSEBhw1Nxu9PzkTnjASUVDfg3jdr8K/3G+BLTkVVQwB1AeezmfwKXWOgEWU1iejtK8L3xjbgnEk56N6jZ/Aq+z61GWCY4RtoOGjbIODQoCuLc595ForGQYBpat7Vw7B+EY88agsK9cM1NWJlYTNe4yvrhQMlJGlCwN+M4T2ScPbBafjZoelyLnQy1uMf+PHm2gBy0pLw7noBDP3qlKP7/oZm0fsEHNFtPb43KQ0zx/RCqs/5TEMsUNQBg+Q2eIKG4z04/RoEh4Agb4MgMX/bMWMDB8vvAYZHbUmmb0yLyyqxeH0j/rmmNzbX5iJQ2YipgxNx/rQ0nDomFQnxwGdb6/H2mlos2xzAtnLgvc3O5xZEg8XTAOoagJ6pZfjBfiU4bnxnDOgTO94FqU0Ag2QGT3Z7G2TdFqBQMKHbJqGInefO54GFR+1Bbi9j/Y5KPPthOZ7dPhql5YkY2Bk4bkwizpyQDHEosLYogMVr6zF/VSPe3RiP9LREJMQ1qZdRH4hDTkI9Tui+HBfM7IsR/bogKZljgrFDbQYYRmb8BgZMFTCC3kTIqwgeC+WRvzj5Y+qRR21JpnfsBmX4vHFbER5bWoVXCgdhR3UefAIIuTm1yExuRElNHCpqE9HYnID4lATV4fqGJJ2Q2D2lGEd2WosLp9Gz6I60tDQFo1iiNgcMkgJCMCUbeLTGdp4Rtz1Pw6O2INMzt1HzN0fy1m4rw5tf1uCtjan4uDgHOwIZSEQSGuIEJOLiERcfh8SEJiQ11yEvvhIjc8owtXcdpg3LwuDeBfD5UnUCV6xRuwCGm8zwvyolcdsDCY/ak9zgwTRQX4ctO8uwfIsfH28DVhYnoLgqGZWN8QiIL5IY34zMpEZ0TQ9gQG4A+3WLw8ieaejVNVfCkNRdQCiWqN0BwyOPYpn81VUoKinBpsIabKkASvxxqG+MQ3JCM3JTm9EzG+hZkIZO+bnwpWcGc8UueYDhkUce7TZF9eUzjzzyqGORBxgeeeTRbpMHGB555NFuEvD/jU+X0sIV/GsAAAAASUVORK5CYII=;" parent="1" vertex="1">
                    <mxGeometry x="40" y="20" width="218" height="254.6" as="geometry"/>
                </mxCell>
                <mxCell id="3" value="Kerja OS" style="rounded=0;whiteSpace=wrap;html=1;" parent="1" vertex="1">
                    <mxGeometry x="305" y="80" width="120" height="60" as="geometry"/>
                </mxCell>
                <mxCell id="8" style="edgeStyle=none;html=1;exitX=0.75;exitY=0;exitDx=0;exitDy=0;" parent="1" source="4" target="7" edge="1">
                    <mxGeometry relative="1" as="geometry"/>
                </mxCell>
                <mxCell id="22" style="edgeStyle=none;html=1;exitX=1;exitY=0.25;exitDx=0;exitDy=0;" parent="1" source="4" target="21" edge="1">
                    <mxGeometry relative="1" as="geometry"/>
                </mxCell>
                <mxCell id="27" style="edgeStyle=none;html=1;exitX=0.25;exitY=0;exitDx=0;exitDy=0;" parent="1" source="4" target="26" edge="1">
                    <mxGeometry relative="1" as="geometry"/>
                </mxCell>
                <mxCell id="29" style="edgeStyle=none;html=1;exitX=0.75;exitY=1;exitDx=0;exitDy=0;" parent="1" source="4" target="28" edge="1">
                    <mxGeometry relative="1" as="geometry"/>
                </mxCell>
                <mxCell id="33" value="" style="edgeStyle=none;html=1;" parent="1" source="4" target="32" edge="1">
                    <mxGeometry relative="1" as="geometry"/>
                </mxCell>
                <mxCell id="4" value="Computer Science (Jembatan ke bidang apapun)" style="rounded=0;whiteSpace=wrap;html=1;fontStyle=1" parent="1" vertex="1">
                    <mxGeometry x="305" y="270" width="120" height="60" as="geometry"/>
                </mxCell>
                <mxCell id="5" value="Kesehatan. Diagnosa (Radiologi) [Bantu lebih cermat]" style="rounded=0;whiteSpace=wrap;html=1;" parent="1" vertex="1">
                    <mxGeometry x="220" y="380" width="120" height="60" as="geometry"/>
                </mxCell>
                <mxCell id="18" value="" style="edgeStyle=none;html=1;" parent="1" source="7" target="11" edge="1">
                    <mxGeometry relative="1" as="geometry"/>
                </mxCell>
                <mxCell id="19" value="" style="edgeStyle=none;html=1;" parent="1" source="7" target="11" edge="1">
                    <mxGeometry relative="1" as="geometry"/>
                </mxCell>
                <mxCell id="20" value="" style="edgeStyle=none;html=1;" parent="1" source="7" target="12" edge="1">
                    <mxGeometry relative="1" as="geometry"/>
                </mxCell>
                <mxCell id="7" value="Web Developer" style="ellipse;whiteSpace=wrap;html=1;fontStyle=1" parent="1" vertex="1">
                    <mxGeometry x="480" y="180" width="120" height="80" as="geometry"/>
                </mxCell>
                <mxCell id="10" style="edgeStyle=none;html=1;exitX=0.5;exitY=1;exitDx=0;exitDy=0;" parent="1" source="9" target="7" edge="1">
                    <mxGeometry relative="1" as="geometry"/>
                </mxCell>
                <mxCell id="9" value="Project / Product Manager: Ngasih dokumen tentang apa yang mau dibuat" style="rounded=1;whiteSpace=wrap;html=1;" parent="1" vertex="1">
                    <mxGeometry x="590" y="30" width="120" height="60" as="geometry"/>
                </mxCell>
                <mxCell id="11" value="Backend" style="ellipse;whiteSpace=wrap;html=1;aspect=fixed;" parent="1" vertex="1">
                    <mxGeometry x="660" y="110" width="80" height="80" as="geometry"/>
                </mxCell>
                <mxCell id="12" value="Frontend" style="ellipse;whiteSpace=wrap;html=1;aspect=fixed;" parent="1" vertex="1">
                    <mxGeometry x="660" y="260" width="80" height="80" as="geometry"/>
                </mxCell>
                <mxCell id="13" value="Ngurus logika dalaman NGURUS FLOW DATA INTERNAL" style="rounded=1;whiteSpace=wrap;html=1;" parent="1" vertex="1">
                    <mxGeometry x="750" y="120" width="120" height="60" as="geometry"/>
                </mxCell>
                <mxCell id="14" value="Ngurus logika tentang tampilan" style="rounded=1;whiteSpace=wrap;html=1;" parent="1" vertex="1">
                    <mxGeometry x="750" y="270" width="120" height="60" as="geometry"/>
                </mxCell>
                <mxCell id="15" value="BATTLE DST ANIMASI ANIMASI: FRONT END" style="rounded=1;whiteSpace=wrap;html=1;" parent="1" vertex="1">
                    <mxGeometry x="710" y="340" width="120" height="60" as="geometry"/>
                </mxCell>
                <mxCell id="16" value="Main2 data internal" style="rounded=1;whiteSpace=wrap;html=1;" parent="1" vertex="1">
                    <mxGeometry x="730" y="190" width="120" height="60" as="geometry"/>
                </mxCell>
                <mxCell id="17" value="DAPET PRIMOGEM&lt;br&gt;NYATET: ARCHEL DAPET PRIMO 50, UPDATE PRIMONYA" style="rounded=1;whiteSpace=wrap;html=1;" parent="1" vertex="1">
                    <mxGeometry x="860" y="190" width="120" height="60" as="geometry"/>
                </mxCell>
                <mxCell id="25" value="" style="edgeStyle=none;html=1;" parent="1" source="21" target="23" edge="1">
                    <mxGeometry relative="1" as="geometry"/>
                </mxCell>
                <mxCell id="21" value="Network" style="ellipse;whiteSpace=wrap;html=1;" parent="1" vertex="1">
                    <mxGeometry x="480" y="390" width="120" height="80" as="geometry"/>
                </mxCell>
                <mxCell id="23" value="Jaringan2 buat koneksi antar pengguna internet" style="rounded=1;whiteSpace=wrap;html=1;" parent="1" vertex="1">
                    <mxGeometry x="650" y="410" width="120" height="60" as="geometry"/>
                </mxCell>
                <mxCell id="26" value="Game Developer" style="ellipse;whiteSpace=wrap;html=1;" parent="1" vertex="1">
                    <mxGeometry x="450" y="80" width="120" height="80" as="geometry"/>
                </mxCell>
                <mxCell id="31" style="edgeStyle=none;html=1;exitX=1;exitY=0.5;exitDx=0;exitDy=0;" parent="1" source="28" target="30" edge="1">
                    <mxGeometry relative="1" as="geometry"/>
                </mxCell>
                <mxCell id="28" value="Multimedia" style="ellipse;whiteSpace=wrap;html=1;" parent="1" vertex="1">
                    <mxGeometry x="440" y="500" width="120" height="80" as="geometry"/>
                </mxCell>
                <mxCell id="30" value="Computer Graphic: otomasi suatu simulasi dengan grafik (SIG)" style="rounded=1;whiteSpace=wrap;html=1;" parent="1" vertex="1">
                    <mxGeometry x="610" y="510" width="120" height="60" as="geometry"/>
                </mxCell>
                <mxCell id="35" value="" style="edgeStyle=none;html=1;" parent="1" source="32" target="34" edge="1">
                    <mxGeometry relative="1" as="geometry"/>
                </mxCell>
                <mxCell id="32" value="Artificial Intelligence" style="ellipse;whiteSpace=wrap;html=1;fontStyle=1" parent="1" vertex="1">
                    <mxGeometry x="430" y="620" width="120" height="80" as="geometry"/>
                </mxCell>
                <mxCell id="34" value="Ngurus kecerdasan buatan&amp;nbsp;" style="rounded=1;whiteSpace=wrap;html=1;" parent="1" vertex="1">
                    <mxGeometry x="620" y="630" width="120" height="60" as="geometry"/>
                </mxCell>
                <mxCell id="36" value="Kesehatan. Diagnosa (Radiologi) [Bantu lebih cermat]" style="rounded=0;whiteSpace=wrap;html=1;" parent="1" vertex="1">
                    <mxGeometry x="760" y="630" width="120" height="60" as="geometry"/>
                </mxCell>
                <mxCell id="37" value="Kesehatan. Diagnosa (Radiologi) [Bantu lebih cermat]" style="rounded=0;whiteSpace=wrap;html=1;" parent="1" vertex="1">
                    <mxGeometry x="880" y="260" width="120" height="60" as="geometry"/>
                </mxCell>
                <mxCell id="38" value="PRODUKTIF" style="rounded=0;whiteSpace=wrap;html=1;" parent="1" vertex="1">
                    <mxGeometry x="250" y="480" width="120" height="60" as="geometry"/>
                </mxCell>
            </root>
        </mxGraphModel>
    </diagram>
    <diagram id="ROWujXWI9IRHMBaNLU6K" name="Page-2">
        <mxGraphModel dx="1203" dy="575" grid="1" gridSize="10" guides="1" tooltips="1" connect="1" arrows="1" fold="1" page="1" pageScale="1" pageWidth="850" pageHeight="1100" math="0" shadow="0">
            <root>
                <mxCell id="0"/>
                <mxCell id="1" parent="0"/>
                <mxCell id="s1Y7uiYA0kfEg3wwpE4M-3" style="edgeStyle=none;html=1;exitX=0.5;exitY=1;exitDx=0;exitDy=0;" edge="1" parent="1" source="s1Y7uiYA0kfEg3wwpE4M-1" target="s1Y7uiYA0kfEg3wwpE4M-2">
                    <mxGeometry relative="1" as="geometry"/>
                </mxCell>
                <mxCell id="s1Y7uiYA0kfEg3wwpE4M-1" value="Bilangannya Ganjil?" style="rounded=0;whiteSpace=wrap;html=1;" vertex="1" parent="1">
                    <mxGeometry x="190" y="50" width="120" height="60" as="geometry"/>
                </mxCell>
                <mxCell id="s1Y7uiYA0kfEg3wwpE4M-5" style="edgeStyle=none;html=1;" edge="1" parent="1" source="s1Y7uiYA0kfEg3wwpE4M-2" target="s1Y7uiYA0kfEg3wwpE4M-4">
                    <mxGeometry relative="1" as="geometry"/>
                </mxCell>
                <mxCell id="s1Y7uiYA0kfEg3wwpE4M-7" style="edgeStyle=none;html=1;" edge="1" parent="1" source="s1Y7uiYA0kfEg3wwpE4M-2" target="s1Y7uiYA0kfEg3wwpE4M-6">
                    <mxGeometry relative="1" as="geometry"/>
                </mxCell>
                <mxCell id="s1Y7uiYA0kfEg3wwpE4M-2" value="" style="rhombus;whiteSpace=wrap;html=1;" vertex="1" parent="1">
                    <mxGeometry x="210" y="170" width="80" height="80" as="geometry"/>
                </mxCell>
                <mxCell id="s1Y7uiYA0kfEg3wwpE4M-9" value="" style="edgeStyle=none;html=1;" edge="1" parent="1" source="s1Y7uiYA0kfEg3wwpE4M-4" target="s1Y7uiYA0kfEg3wwpE4M-8">
                    <mxGeometry relative="1" as="geometry"/>
                </mxCell>
                <mxCell id="s1Y7uiYA0kfEg3wwpE4M-4" value="" style="rounded=0;whiteSpace=wrap;html=1;" vertex="1" parent="1">
                    <mxGeometry x="100" y="290" width="120" height="60" as="geometry"/>
                </mxCell>
                <mxCell id="s1Y7uiYA0kfEg3wwpE4M-6" value="" style="rounded=0;whiteSpace=wrap;html=1;fontStyle=1" vertex="1" parent="1">
                    <mxGeometry x="290" y="280" width="120" height="60" as="geometry"/>
                </mxCell>
                <mxCell id="s1Y7uiYA0kfEg3wwpE4M-10" value="N" style="edgeStyle=none;html=1;" edge="1" parent="1" source="s1Y7uiYA0kfEg3wwpE4M-8">
                    <mxGeometry relative="1" as="geometry">
                        <mxPoint x="90" y="310" as="targetPoint"/>
                        <Array as="points">
                            <mxPoint x="10" y="360"/>
                        </Array>
                    </mxGeometry>
                </mxCell>
                <mxCell id="s1Y7uiYA0kfEg3wwpE4M-12" value="NO" style="edgeLabel;html=1;align=center;verticalAlign=middle;resizable=0;points=[];" vertex="1" connectable="0" parent="s1Y7uiYA0kfEg3wwpE4M-10">
                    <mxGeometry x="0.6411" y="-3" relative="1" as="geometry">
                        <mxPoint as="offset"/>
                    </mxGeometry>
                </mxCell>
                <mxCell id="s1Y7uiYA0kfEg3wwpE4M-8" value="" style="rounded=0;whiteSpace=wrap;html=1;" vertex="1" parent="1">
                    <mxGeometry x="100" y="390" width="120" height="60" as="geometry"/>
                </mxCell>
                <mxCell id="s1Y7uiYA0kfEg3wwpE4M-14" value="" style="edgeStyle=none;html=1;" edge="1" parent="1" source="s1Y7uiYA0kfEg3wwpE4M-11" target="s1Y7uiYA0kfEg3wwpE4M-13">
                    <mxGeometry relative="1" as="geometry"/>
                </mxCell>
                <mxCell id="s1Y7uiYA0kfEg3wwpE4M-11" value="SUdah seelesai?" style="rhombus;whiteSpace=wrap;html=1;" vertex="1" parent="1">
                    <mxGeometry x="-50" y="320" width="80" height="80" as="geometry"/>
                </mxCell>
                <mxCell id="s1Y7uiYA0kfEg3wwpE4M-13" value="Ngapain lagi" style="rounded=0;whiteSpace=wrap;html=1;" vertex="1" parent="1">
                    <mxGeometry x="90" y="600" width="120" height="60" as="geometry"/>
                </mxCell>
                <mxCell id="s1Y7uiYA0kfEg3wwpE4M-15" value="i = 3" style="rounded=0;whiteSpace=wrap;html=1;" vertex="1" parent="1">
                    <mxGeometry x="60" y="800" width="60" height="60" as="geometry"/>
                </mxCell>
                <mxCell id="s1Y7uiYA0kfEg3wwpE4M-16" value="3 &amp;lt; 5" style="rounded=0;whiteSpace=wrap;html=1;" vertex="1" parent="1">
                    <mxGeometry x="90" y="880" width="60" height="60" as="geometry"/>
                </mxCell>
                <mxCell id="s1Y7uiYA0kfEg3wwpE4M-17" value="Print archel&lt;br&gt;i+=1" style="rounded=0;whiteSpace=wrap;html=1;" vertex="1" parent="1">
                    <mxGeometry x="90" y="950" width="60" height="60" as="geometry"/>
                </mxCell>
                <mxCell id="s1Y7uiYA0kfEg3wwpE4M-18" value="i = 4" style="rounded=0;whiteSpace=wrap;html=1;" vertex="1" parent="1">
                    <mxGeometry x="90" y="1020" width="60" height="60" as="geometry"/>
                </mxCell>
                <mxCell id="s1Y7uiYA0kfEg3wwpE4M-19" value="i = 4" style="rounded=0;whiteSpace=wrap;html=1;" vertex="1" parent="1">
                    <mxGeometry x="180" y="800" width="60" height="60" as="geometry"/>
                </mxCell>
                <mxCell id="s1Y7uiYA0kfEg3wwpE4M-20" value="4 &amp;lt; 5" style="rounded=0;whiteSpace=wrap;html=1;" vertex="1" parent="1">
                    <mxGeometry x="200" y="880" width="60" height="60" as="geometry"/>
                </mxCell>
                <mxCell id="s1Y7uiYA0kfEg3wwpE4M-21" value="Print archel&lt;br&gt;i+=1" style="rounded=0;whiteSpace=wrap;html=1;" vertex="1" parent="1">
                    <mxGeometry x="200" y="960" width="60" height="60" as="geometry"/>
                </mxCell>
                <mxCell id="s1Y7uiYA0kfEg3wwpE4M-22" value="i = 5" style="rounded=0;whiteSpace=wrap;html=1;" vertex="1" parent="1">
                    <mxGeometry x="200" y="1030" width="60" height="60" as="geometry"/>
                </mxCell>
                <mxCell id="s1Y7uiYA0kfEg3wwpE4M-23" value="i = 5" style="rounded=0;whiteSpace=wrap;html=1;" vertex="1" parent="1">
                    <mxGeometry x="270" y="810" width="60" height="60" as="geometry"/>
                </mxCell>
                <mxCell id="s1Y7uiYA0kfEg3wwpE4M-24" value="5 &amp;lt; 5" style="rounded=0;whiteSpace=wrap;html=1;" vertex="1" parent="1">
                    <mxGeometry x="290" y="890" width="60" height="60" as="geometry"/>
                </mxCell>
                <mxCell id="s1Y7uiYA0kfEg3wwpE4M-25" value="" style="shape=flexArrow;endArrow=classic;startArrow=classic;html=1;" edge="1" parent="1">
                    <mxGeometry width="100" height="100" relative="1" as="geometry">
                        <mxPoint x="340" y="900" as="sourcePoint"/>
                        <mxPoint x="440" y="800" as="targetPoint"/>
                    </mxGeometry>
                </mxCell>
            </root>
        </mxGraphModel>
    </diagram>
</mxfile>